<svg width="133" height="144" viewBox="0 0 133 144" fill="none" xmlns="http://www.w3.org/2000/svg">
    <title>Efficacité prouvé</title>
    <path d="M5.40576 39.1068C6.07266 39.4536 6.87293 39.1868 7.19304 38.5466C18.6637 16.4056 41.2314 2.66758 66.12 2.66758C91.0086 2.66758 113.603 16.4056 125.047 38.5466C125.287 39.0001 125.741 39.2668 126.221 39.2668C126.434 39.2668 126.647 39.2135 126.834 39.1068C127.501 38.76 127.741 37.9597 127.394 37.3195C115.497 14.2983 92.0222 0 66.12 0C40.2177 0 16.743 14.2983 4.84557 37.3195C4.49878 37.9864 4.76554 38.7867 5.40576 39.1068Z" fill="#303030"/>
    <path d="M121.421 41.5347C121.901 41.2679 122.115 40.6811 121.848 40.1742C111.018 19.2604 89.677 6.24255 66.1223 6.24255C42.5675 6.24255 21.2268 19.2604 10.3964 40.2009C10.1297 40.6811 10.3431 41.2946 10.8232 41.5614C10.9833 41.6414 11.1167 41.6681 11.2767 41.6681C11.6502 41.6681 11.997 41.4813 12.157 41.1346C22.6673 20.8609 43.3411 8.26992 66.1223 8.26992C88.9035 8.26992 109.577 20.8609 120.061 41.1079C120.301 41.588 120.914 41.8015 121.395 41.5347H121.421Z" fill="#303030"/>
    <path d="M12.5377 52.2189C12.5377 52.3049 12.5033 52.3823 12.4345 52.4511C12.3829 52.5027 12.3141 52.5285 12.2281 52.5285H3.76647C3.68048 52.5285 3.63748 52.5715 3.63748 52.6575V56.6561C3.63748 56.7421 3.68048 56.7851 3.76647 56.7851H9.31299C9.39898 56.7851 9.46778 56.8195 9.51937 56.8883C9.58817 56.9399 9.62256 57.0087 9.62256 57.0947V59.5971C9.62256 59.6831 9.58817 59.7604 9.51937 59.8292C9.46778 59.8808 9.39898 59.9066 9.31299 59.9066H3.76647C3.68048 59.9066 3.63748 59.9496 3.63748 60.0356V64.2149C3.63748 64.3008 3.68048 64.3438 3.76647 64.3438H12.2281C12.3141 64.3438 12.3829 64.3782 12.4345 64.447C12.5033 64.4986 12.5377 64.5674 12.5377 64.6534V67.1558C12.5377 67.2418 12.5033 67.3192 12.4345 67.388C12.3829 67.4396 12.3141 67.4654 12.2281 67.4654H0.309573C0.223581 67.4654 0.146187 67.4396 0.0773932 67.388C0.0257977 67.3192 0 67.2418 0 67.1558V49.7165C0 49.6305 0.0257977 49.5617 0.0773932 49.5101C0.146187 49.4413 0.223581 49.4069 0.309573 49.4069H12.2281C12.3141 49.4069 12.3829 49.4413 12.4345 49.5101C12.5033 49.5617 12.5377 49.6305 12.5377 49.7165V52.2189Z" fill="#303030"/>
    <path d="M27.5774 52.2189C27.5774 52.3049 27.543 52.3823 27.4742 52.4511C27.4226 52.5027 27.3538 52.5285 27.2678 52.5285H18.832C18.746 52.5285 18.703 52.5715 18.703 52.6575V56.6561C18.703 56.7421 18.746 56.7851 18.832 56.7851H24.3785C24.4645 56.7851 24.5333 56.8195 24.5849 56.8883C24.6537 56.9399 24.6881 57.0087 24.6881 57.0947V59.5971C24.6881 59.6831 24.6537 59.7604 24.5849 59.8292C24.5333 59.8808 24.4645 59.9066 24.3785 59.9066H18.832C18.746 59.9066 18.703 59.9496 18.703 60.0356V67.1558C18.703 67.2418 18.6686 67.3192 18.5998 67.388C18.5482 67.4396 18.4794 67.4654 18.3934 67.4654H15.3751C15.2891 67.4654 15.2117 67.4396 15.1429 67.388C15.0913 67.3192 15.0655 67.2418 15.0655 67.1558V49.7165C15.0655 49.6305 15.0913 49.5617 15.1429 49.5101C15.2117 49.4413 15.2891 49.4069 15.3751 49.4069H27.2678C27.3538 49.4069 27.4226 49.4413 27.4742 49.5101C27.543 49.5617 27.5774 49.6305 27.5774 49.7165V52.2189Z" fill="#303030"/>
    <path d="M42.0131 52.2189C42.0131 52.3049 41.9787 52.3823 41.9099 52.4511C41.8583 52.5027 41.7895 52.5285 41.7035 52.5285H33.2676C33.1816 52.5285 33.1386 52.5715 33.1386 52.6575V56.6561C33.1386 56.7421 33.1816 56.7851 33.2676 56.7851H38.8141C38.9001 56.7851 38.9689 56.8195 39.0205 56.8883C39.0893 56.9399 39.1237 57.0087 39.1237 57.0947V59.5971C39.1237 59.6831 39.0893 59.7604 39.0205 59.8292C38.9689 59.8808 38.9001 59.9066 38.8141 59.9066H33.2676C33.1816 59.9066 33.1386 59.9496 33.1386 60.0356V67.1558C33.1386 67.2418 33.1042 67.3192 33.0354 67.388C32.9838 67.4396 32.9151 67.4654 32.8291 67.4654H29.8107C29.7247 67.4654 29.6473 67.4396 29.5785 67.388C29.5269 67.3192 29.5011 67.2418 29.5011 67.1558V49.7165C29.5011 49.6305 29.5269 49.5617 29.5785 49.5101C29.6473 49.4413 29.7247 49.4069 29.8107 49.4069H41.7035C41.7895 49.4069 41.8583 49.4413 41.9099 49.5101C41.9787 49.5617 42.0131 49.6305 42.0131 49.7165V52.2189Z" fill="#303030"/>
    <path d="M44.2464 67.4654C44.1604 67.4654 44.083 67.4396 44.0142 67.388C43.9626 67.3192 43.9368 67.2418 43.9368 67.1558V49.7165C43.9368 49.6305 43.9626 49.5617 44.0142 49.5101C44.083 49.4413 44.1604 49.4069 44.2464 49.4069H47.2647C47.3507 49.4069 47.4195 49.4413 47.4711 49.5101C47.5399 49.5617 47.5743 49.6305 47.5743 49.7165V67.1558C47.5743 67.2418 47.5399 67.3192 47.4711 67.388C47.4195 67.4396 47.3507 67.4654 47.2647 67.4654H44.2464Z" fill="#303030"/>
    <path d="M57.06 67.6718C55.7185 67.6718 54.5404 67.4138 53.5257 66.8978C52.511 66.3647 51.7285 65.6251 51.1781 64.6792C50.6278 63.7333 50.3526 62.6412 50.3526 61.4029V55.4436C50.3526 54.2053 50.6278 53.1132 51.1781 52.1673C51.7285 51.2214 52.511 50.4905 53.5257 49.9745C54.5404 49.4585 55.7185 49.2006 57.06 49.2006C58.3843 49.2006 59.5452 49.4499 60.5427 49.9487C61.5574 50.4303 62.34 51.1268 62.8903 52.0383C63.4579 52.9326 63.7416 53.9732 63.7416 55.1598C63.7416 55.3146 63.6384 55.4092 63.4321 55.4436L60.4137 55.6242H60.3621C60.1901 55.6242 60.1041 55.5296 60.1041 55.3404C60.1041 54.4289 59.8204 53.698 59.2528 53.1476C58.7025 52.5973 57.9715 52.3221 57.06 52.3221C56.1313 52.3221 55.3832 52.5973 54.8156 53.1476C54.2653 53.698 53.9901 54.4289 53.9901 55.3404V61.5577C53.9901 62.452 54.2653 63.1744 54.8156 63.7247C55.3832 64.2751 56.1313 64.5502 57.06 64.5502C57.9715 64.5502 58.7025 64.2751 59.2528 63.7247C59.8204 63.1744 60.1041 62.452 60.1041 61.5577C60.1041 61.3685 60.2073 61.2739 60.4137 61.2739L63.4321 61.4029C63.518 61.4029 63.5868 61.4287 63.6384 61.4803C63.7072 61.5319 63.7416 61.5921 63.7416 61.6609C63.7416 62.8476 63.4579 63.8967 62.8903 64.8082C62.34 65.7197 61.5574 66.4249 60.5427 66.9236C59.5452 67.4224 58.3843 67.6718 57.06 67.6718Z" fill="#303030"/>
    <path d="M77.486 67.4654C77.314 67.4654 77.2022 67.3794 77.1506 67.2074L76.3767 64.6792C76.3423 64.6104 76.2993 64.576 76.2477 64.576H69.9014C69.8498 64.576 69.8068 64.6104 69.7725 64.6792L69.0243 67.2074C68.9727 67.3794 68.8609 67.4654 68.6889 67.4654H65.4126C65.3094 67.4654 65.232 67.4396 65.1805 67.388C65.1289 67.3192 65.1203 67.2246 65.1547 67.1042L70.727 49.6649C70.7786 49.4929 70.8904 49.4069 71.0623 49.4069H75.1126C75.2846 49.4069 75.3964 49.4929 75.448 49.6649L81.0203 67.1042C81.0375 67.1386 81.0461 67.1816 81.0461 67.2332C81.0461 67.388 80.9515 67.4654 80.7623 67.4654H77.486ZM70.7012 61.6093C70.684 61.7125 70.7184 61.7641 70.8044 61.7641H75.3448C75.448 61.7641 75.4824 61.7125 75.448 61.6093L73.1262 53.9474C73.109 53.8786 73.0832 53.8528 73.0488 53.87C73.0144 53.87 72.9886 53.8958 72.9714 53.9474L70.7012 61.6093Z" fill="#303030"/>
    <path d="M89.1057 67.6718C87.7642 67.6718 86.5861 67.4138 85.5714 66.8978C84.5566 66.3647 83.7741 65.6251 83.2238 64.6792C82.6734 63.7333 82.3982 62.6412 82.3982 61.4029V55.4436C82.3982 54.2053 82.6734 53.1132 83.2238 52.1673C83.7741 51.2214 84.5566 50.4905 85.5714 49.9745C86.5861 49.4585 87.7642 49.2006 89.1057 49.2006C90.4299 49.2006 91.5908 49.4499 92.5884 49.9487C93.6031 50.4303 94.3856 51.1268 94.936 52.0383C95.5035 52.9326 95.7873 53.9732 95.7873 55.1598C95.7873 55.3146 95.6841 55.4092 95.4777 55.4436L92.4594 55.6242H92.4078C92.2358 55.6242 92.1498 55.5296 92.1498 55.3404C92.1498 54.4289 91.866 53.698 91.2985 53.1476C90.7481 52.5973 90.0172 52.3221 89.1057 52.3221C88.1769 52.3221 87.4288 52.5973 86.8613 53.1476C86.3109 53.698 86.0357 54.4289 86.0357 55.3404V61.5577C86.0357 62.452 86.3109 63.1744 86.8613 63.7247C87.4288 64.2751 88.1769 64.5502 89.1057 64.5502C90.0172 64.5502 90.7481 64.2751 91.2985 63.7247C91.866 63.1744 92.1498 62.452 92.1498 61.5577C92.1498 61.3685 92.253 61.2739 92.4594 61.2739L95.4777 61.4029C95.5637 61.4029 95.6325 61.4287 95.6841 61.4803C95.7529 61.5319 95.7873 61.5921 95.7873 61.6609C95.7873 62.8476 95.5035 63.8967 94.936 64.8082C94.3856 65.7197 93.6031 66.4249 92.5884 66.9236C91.5908 67.4224 90.4299 67.6718 89.1057 67.6718Z" fill="#303030"/>
    <path d="M98.7643 67.4654C98.6783 67.4654 98.6009 67.4396 98.5321 67.388C98.4805 67.3192 98.4547 67.2418 98.4547 67.1558V49.7165C98.4547 49.6305 98.4805 49.5617 98.5321 49.5101C98.6009 49.4413 98.6783 49.4069 98.7643 49.4069H101.783C101.869 49.4069 101.937 49.4413 101.989 49.5101C102.058 49.5617 102.092 49.6305 102.092 49.7165V67.1558C102.092 67.2418 102.058 67.3192 101.989 67.388C101.937 67.4396 101.869 67.4654 101.783 67.4654H98.7643Z" fill="#303030"/>
    <path d="M117.692 49.4069C117.778 49.4069 117.847 49.4413 117.898 49.5101C117.967 49.5617 118.002 49.6305 118.002 49.7165V52.2447C118.002 52.3307 117.967 52.4081 117.898 52.4769C117.847 52.5285 117.778 52.5543 117.692 52.5543H113.074C112.988 52.5543 112.945 52.5973 112.945 52.6833V67.1558C112.945 67.2418 112.911 67.3192 112.842 67.388C112.79 67.4396 112.722 67.4654 112.636 67.4654H109.617C109.531 67.4654 109.454 67.4396 109.385 67.388C109.334 67.3192 109.308 67.2418 109.308 67.1558V52.6833C109.308 52.5973 109.265 52.5543 109.179 52.5543H104.69C104.604 52.5543 104.527 52.5285 104.458 52.4769C104.406 52.4081 104.38 52.3307 104.38 52.2447V49.7165C104.38 49.6305 104.406 49.5617 104.458 49.5101C104.527 49.4413 104.604 49.4069 104.69 49.4069H117.692Z" fill="#303030"/>
    <path d="M132.86 52.2189C132.86 52.3049 132.826 52.3823 132.757 52.4511C132.705 52.5027 132.636 52.5285 132.55 52.5285H124.089C124.003 52.5285 123.96 52.5715 123.96 52.6575V56.6561C123.96 56.7421 124.003 56.7851 124.089 56.7851H129.635C129.721 56.7851 129.79 56.8195 129.842 56.8883C129.911 56.9399 129.945 57.0087 129.945 57.0947V59.5971C129.945 59.6831 129.911 59.7604 129.842 59.8292C129.79 59.8808 129.721 59.9066 129.635 59.9066H124.089C124.003 59.9066 123.96 59.9496 123.96 60.0356V64.2149C123.96 64.3008 124.003 64.3438 124.089 64.3438H132.55C132.636 64.3438 132.705 64.3782 132.757 64.447C132.826 64.4986 132.86 64.5674 132.86 64.6534V67.1558C132.86 67.2418 132.826 67.3192 132.757 67.388C132.705 67.4396 132.636 67.4654 132.55 67.4654H120.632C120.546 67.4654 120.469 67.4396 120.4 67.388C120.348 67.3192 120.322 67.2418 120.322 67.1558V49.7165C120.322 49.6305 120.348 49.5617 120.4 49.5101C120.469 49.4413 120.546 49.4069 120.632 49.4069H132.55C132.636 49.4069 132.705 49.4413 132.757 49.5101C132.826 49.5617 132.86 49.6305 132.86 49.7165V52.2189ZM125.095 47.8075C124.975 47.8075 124.897 47.7731 124.863 47.7043C124.828 47.6355 124.837 47.5495 124.889 47.4463L126.256 44.8407C126.325 44.686 126.454 44.6086 126.643 44.6086H129.248C129.369 44.6086 129.446 44.6516 129.481 44.7376C129.532 44.8063 129.524 44.8923 129.455 44.9955L127.623 47.6011C127.537 47.7387 127.417 47.8075 127.262 47.8075H125.095Z" fill="#303030"/>
    <path d="M12.7709 74.3147C14.0952 74.3147 15.2589 74.5856 16.2622 75.1273C17.2654 75.6691 18.0379 76.4416 18.5797 77.4448C19.1415 78.428 19.4224 79.5617 19.4224 80.8458C19.4224 82.1099 19.1315 83.2235 18.5496 84.1866C17.9878 85.1497 17.1852 85.9022 16.1418 86.4439C15.1185 86.9656 13.9346 87.2265 12.5903 87.2265H8.31647C8.21614 87.2265 8.16598 87.2766 8.16598 87.3769V95.0518C8.16598 95.1521 8.12585 95.2424 8.04559 95.3227C7.9854 95.3829 7.90514 95.4129 7.80481 95.4129H4.28342C4.18309 95.4129 4.0928 95.3829 4.01254 95.3227C3.95235 95.2424 3.92225 95.1521 3.92225 95.0518V74.6758C3.92225 74.5755 3.95235 74.4953 4.01254 74.4351C4.0928 74.3548 4.18309 74.3147 4.28342 74.3147H12.7709ZM12.1388 83.8255C13.0618 83.8255 13.8042 83.5646 14.366 83.0429C14.9279 82.5012 15.2088 81.7989 15.2088 80.9361C15.2088 80.0532 14.9279 79.3409 14.366 78.7992C13.8042 78.2574 13.0618 77.9866 12.1388 77.9866H8.31647C8.21614 77.9866 8.16598 78.0367 8.16598 78.1371V83.675C8.16598 83.7753 8.21614 83.8255 8.31647 83.8255H12.1388Z" fill="#303030"/>
    <path d="M33.5886 95.4129C33.388 95.4129 33.2475 95.3227 33.1673 95.1421L29.4051 86.8051C29.365 86.7248 29.3048 86.6847 29.2245 86.6847H26.4255C26.3251 86.6847 26.275 86.7349 26.275 86.8352V95.0518C26.275 95.1521 26.2348 95.2424 26.1546 95.3227C26.0944 95.3829 26.0141 95.4129 25.9138 95.4129H22.3924C22.2921 95.4129 22.2018 95.3829 22.1215 95.3227C22.0613 95.2424 22.0312 95.1521 22.0312 95.0518V74.7059C22.0312 74.6056 22.0613 74.5254 22.1215 74.4652C22.2018 74.3849 22.2921 74.3448 22.3924 74.3448H31.0003C32.2844 74.3448 33.408 74.6056 34.3712 75.1273C35.3543 75.649 36.1068 76.3914 36.6285 77.3545C37.1702 78.3176 37.4411 79.4312 37.4411 80.6953C37.4411 82.0597 37.1 83.2335 36.4178 84.2167C35.7356 85.1798 34.7825 85.862 33.5585 86.2633C33.4582 86.3035 33.4281 86.3737 33.4682 86.474L37.5615 94.9916C37.6016 95.0718 37.6217 95.132 37.6217 95.1722C37.6217 95.3327 37.5113 95.4129 37.2906 95.4129H33.5886ZM26.4255 77.9866C26.3251 77.9866 26.275 78.0367 26.275 78.1371V83.2837C26.275 83.384 26.3251 83.4342 26.4255 83.4342H30.3682C31.2109 83.4342 31.8931 83.1834 32.4148 82.6818C32.9566 82.1801 33.2275 81.528 33.2275 80.7254C33.2275 79.9228 32.9566 79.2707 32.4148 78.7691C31.8931 78.2474 31.2109 77.9866 30.3682 77.9866H26.4255Z" fill="#303030"/>
    <path d="M48.013 95.744C46.448 95.744 45.0635 95.423 43.8596 94.7809C42.6758 94.1388 41.7528 93.2459 41.0906 92.1022C40.4285 90.9385 40.0974 89.6042 40.0974 88.0993V81.6584C40.0974 80.1736 40.4285 78.8594 41.0906 77.7157C41.7528 76.572 42.6758 75.6891 43.8596 75.0671C45.0635 74.425 46.448 74.104 48.013 74.104C49.5982 74.104 50.9826 74.425 52.1665 75.0671C53.3704 75.6891 54.3034 76.572 54.9655 77.7157C55.6277 78.8594 55.9587 80.1736 55.9587 81.6584V88.0993C55.9587 89.6042 55.6277 90.9385 54.9655 92.1022C54.3034 93.266 53.3704 94.1689 52.1665 94.811C50.9826 95.433 49.5982 95.744 48.013 95.744ZM48.013 92.1022C49.1166 92.1022 50.0095 91.7511 50.6917 91.0488C51.3739 90.3465 51.715 89.4135 51.715 88.2498V81.6283C51.715 80.4646 51.3739 79.5316 50.6917 78.8293C50.0296 78.1069 49.1367 77.7458 48.013 77.7458C46.9095 77.7458 46.0166 78.1069 45.3344 78.8293C44.6722 79.5316 44.3412 80.4646 44.3412 81.6283V88.2498C44.3412 89.4135 44.6722 90.3465 45.3344 91.0488C46.0166 91.7511 46.9095 92.1022 48.013 92.1022Z" fill="#303030"/>
    <path d="M66.8568 95.6537C65.3118 95.6537 63.9474 95.3527 62.7636 94.7508C61.5998 94.1488 60.6869 93.3061 60.0247 92.2226C59.3826 91.119 59.0616 89.855 59.0616 88.4304V74.7059C59.0616 74.6056 59.0917 74.5254 59.1519 74.4652C59.2322 74.3849 59.3224 74.3448 59.4228 74.3448H62.9442C63.0445 74.3448 63.1247 74.3849 63.1849 74.4652C63.2652 74.5254 63.3053 74.6056 63.3053 74.7059V88.4604C63.3053 89.5239 63.6264 90.3867 64.2684 91.0488C64.9306 91.6909 65.7934 92.0119 66.8568 92.0119C67.9203 92.0119 68.773 91.6909 69.4151 91.0488C70.0772 90.3867 70.4083 89.5239 70.4083 88.4604V74.7059C70.4083 74.6056 70.4384 74.5254 70.4986 74.4652C70.5789 74.3849 70.6692 74.3448 70.7695 74.3448H74.2909C74.3912 74.3448 74.4715 74.3849 74.5317 74.4652C74.6119 74.5254 74.652 74.6056 74.652 74.7059V88.4304C74.652 89.855 74.321 91.119 73.6588 92.2226C73.0168 93.3061 72.1038 94.1488 70.92 94.7508C69.7562 95.3527 68.4018 95.6537 66.8568 95.6537Z" fill="#303030"/>
    <path d="M83.7386 95.4129C83.538 95.4129 83.4076 95.3126 83.3474 95.112L77.1473 74.7661L77.1172 74.6458C77.1172 74.4451 77.2276 74.3448 77.4483 74.3448H81.2405C81.4613 74.3448 81.6017 74.4451 81.6619 74.6458L85.6649 89.3333C85.6849 89.3935 85.715 89.4236 85.7552 89.4236C85.7953 89.4236 85.8254 89.3935 85.8455 89.3333L89.7882 74.6458C89.8484 74.4451 89.9889 74.3448 90.2096 74.3448H93.9116C94.0319 74.3448 94.1222 74.3849 94.1824 74.4652C94.2426 74.5454 94.2526 74.6458 94.2125 74.7661L87.9222 95.112C87.862 95.3126 87.7316 95.4129 87.5309 95.4129H83.7386Z" fill="#303030"/>
    <path d="M111.314 77.6254C111.314 77.7257 111.274 77.816 111.194 77.8963C111.134 77.9565 111.053 77.9866 110.953 77.9866H101.081C100.981 77.9866 100.931 78.0367 100.931 78.1371V82.8021C100.931 82.9025 100.981 82.9526 101.081 82.9526H107.552C107.652 82.9526 107.733 82.9928 107.793 83.073C107.873 83.1332 107.913 83.2135 107.913 83.3138V86.2332C107.913 86.3336 107.873 86.4239 107.793 86.5041C107.733 86.5643 107.652 86.5944 107.552 86.5944H101.081C100.981 86.5944 100.931 86.6446 100.931 86.7449V91.6207C100.931 91.721 100.981 91.7712 101.081 91.7712H110.953C111.053 91.7712 111.134 91.8113 111.194 91.8916C111.274 91.9518 111.314 92.032 111.314 92.1323V95.0518C111.314 95.1521 111.274 95.2424 111.194 95.3227C111.134 95.3829 111.053 95.4129 110.953 95.4129H97.048C96.9477 95.4129 96.8574 95.3829 96.7772 95.3227C96.717 95.2424 96.6869 95.1521 96.6869 95.0518V74.7059C96.6869 74.6056 96.717 74.5254 96.7772 74.4652C96.8574 74.3849 96.9477 74.3448 97.048 74.3448H110.953C111.053 74.3448 111.134 74.3849 111.194 74.4652C111.274 74.5254 111.314 74.6056 111.314 74.7059V77.6254ZM102.255 72.4787C102.114 72.4787 102.024 72.4386 101.984 72.3583C101.944 72.2781 101.954 72.1778 102.014 72.0574L103.609 69.0175C103.69 68.837 103.84 68.7467 104.061 68.7467H107.101C107.241 68.7467 107.331 68.7968 107.371 68.8971C107.432 68.9774 107.422 69.0777 107.341 69.1981L105.204 72.238C105.104 72.3985 104.964 72.4787 104.783 72.4787H102.255Z" fill="#303030"/>
    <path d="M128.891 77.6254C128.891 77.7257 128.85 77.816 128.77 77.8963C128.71 77.9565 128.63 77.9866 128.529 77.9866H118.657C118.557 77.9866 118.507 78.0367 118.507 78.1371V82.8021C118.507 82.9025 118.557 82.9526 118.657 82.9526H125.128C125.229 82.9526 125.309 82.9928 125.369 83.073C125.449 83.1332 125.49 83.2135 125.49 83.3138V86.2332C125.49 86.3336 125.449 86.4239 125.369 86.5041C125.309 86.5643 125.229 86.5944 125.128 86.5944H118.657C118.557 86.5944 118.507 86.6446 118.507 86.7449V91.6207C118.507 91.721 118.557 91.7712 118.657 91.7712H128.529C128.63 91.7712 128.71 91.8113 128.77 91.8916C128.85 91.9518 128.891 92.032 128.891 92.1323V95.0518C128.891 95.1521 128.85 95.2424 128.77 95.3227C128.71 95.3829 128.63 95.4129 128.529 95.4129H114.624C114.524 95.4129 114.434 95.3829 114.354 95.3227C114.293 95.2424 114.263 95.1521 114.263 95.0518V74.7059C114.263 74.6056 114.293 74.5254 114.354 74.4652C114.434 74.3849 114.524 74.3448 114.624 74.3448H128.529C128.63 74.3448 128.71 74.3849 128.77 74.4652C128.85 74.5254 128.891 74.6056 128.891 74.7059V77.6254Z" fill="#303030"/>
    <path d="M126.835 104.423C126.168 104.076 125.368 104.343 125.047 104.983C113.577 127.124 91.0091 140.862 66.1205 140.862C41.232 140.862 18.6375 127.124 7.19358 104.983C6.9535 104.53 6.5 104.263 6.01984 104.263C5.80643 104.263 5.59302 104.316 5.40629 104.423C4.7394 104.77 4.49932 105.57 4.8461 106.21C16.7435 129.232 40.2183 143.53 66.1205 143.53C92.0228 143.53 115.498 129.232 127.395 106.21C127.742 105.544 127.475 104.743 126.835 104.423Z" fill="#303030"/>
    <path d="M10.8192 101.995C10.339 102.262 10.1256 102.849 10.3924 103.356C21.2228 124.27 42.5635 137.287 66.1182 137.287C89.673 137.287 111.014 124.27 121.844 103.329C122.111 102.849 121.897 102.235 121.417 101.969C121.257 101.889 121.124 101.862 120.964 101.862C120.59 101.862 120.244 102.049 120.083 102.395C109.573 122.669 88.8994 135.26 66.1182 135.26C43.3371 135.26 22.6633 122.669 12.1797 102.422C11.9396 101.942 11.326 101.729 10.8459 101.995H10.8192Z" fill="#303030"/>
</svg>
