<svg class="svg-inline icon-youtube" role="img" aria-hidden="true" xmlns="http://www.w3.org/2000/svg" width="33" height="33" viewBox="0 0 1000 1000"><path d="M979.41,259.48a125.3,125.3,0,0,0-88.14-88.14C813,149.92,500,149.92,500,149.92s-313,0-391.26,20.6c-42,11.52-76.62,46.13-88.14,89C0,337.73,0,500,0,500S0,663.1,20.6,740.52a125.3,125.3,0,0,0,88.14,88.14C187.81,850.08,500,850.08,500,850.08s313,0,391.27-20.6a125.29,125.29,0,0,0,88.14-88.13C1000,663.1,1000,500.82,1000,500.82S1000.83,337.73,979.41,259.48ZM637.69,512.28,421.79,636.62a14.77,14.77,0,0,1-22.15-12.8V375.12a14.77,14.77,0,0,1,22.15-12.8l215.9,124.34A14.79,14.79,0,0,1,637.69,512.28Z"></path></svg>