<svg class="svg-inline icon-cart" role="img" aria-hidden="true" xmlns="http://www.w3.org/2000/svg" width="19" height="18" viewBox="0 0 53.99 49.79">
    <g>
        <g>
            <path d="M53.57,18.07a2.23,2.23,0,0,0-1.84-1H36.48L31.24,2.31A3.47,3.47,0,0,0,28,0H26a3.47,3.47,0,0,0-3.27,2.31l-5.24,14.8H2.27a2.23,2.23,0,0,0-1.85,1,2.23,2.23,0,0,0-.29,2.06l10,28.15a2.26,2.26,0,0,0,2.14,1.51h29.5a2.26,2.26,0,0,0,2.13-1.51l10-28.15A2.23,2.23,0,0,0,53.57,18.07Zm-33-1L25.49,3.27h0A.56.56,0,0,1,26,2.9H28a.56.56,0,0,1,.53.37l4.91,13.84ZM12.69,46.89,3.16,20H50.83L41.3,46.89Z"></path>
        </g>
    </g>
</svg>