<svg class="svg-inline icon-location" role="img" aria-hidden="true" xmlns="http://www.w3.org/2000/svg" width="18" height="25" viewBox="0 0 35.06 49.97">
<g>
    <g>
        <path d="M17.69,10.8a6.56,6.56,0,1,0,6.56,6.55A6.56,6.56,0,0,0,17.69,10.8Zm4,6.55a4,4,0,1,1-4-4A4,4,0,0,1,21.73,17.35Z"></path>
        <path d="M29.92,5.13a17.52,17.52,0,0,0-24.77,0C-1,11.26-1.77,23.26,3.5,30.28L17.54,50l14-19.65C36.83,23.27,36.05,11.27,29.92,5.13ZM29.5,28.85l-12,16.79-12-16.86C1,22.77,1.69,12.14,6.93,6.91a15,15,0,0,1,21.21,0C33.37,12.14,34,22.8,29.5,28.85Z"></path>
    </g>
</g>
</svg>