<svg class="svg-inline icon-help" role="img" aria-hidden="true" xmlns="http://www.w3.org/2000/svg" width="25" height="25" viewBox="0 0 50 50"><title>Help</title><g><g><rect x="21.82" y="32.57" width="4.05" height="4.01"></rect><path d="M24.89,11.87a6.2,6.2,0,0,0-4.43,1.49,5.33,5.33,0,0,0-1.57,4.06,7.2,7.2,0,0,0,.42,2.38L23.05,19a5,5,0,0,1-.27-1.57,2,2,0,0,1,.55-1.48,2,2,0,0,1,1.5-.54,2,2,0,0,1,1.66.71,3,3,0,0,1,.58,2,7.76,7.76,0,0,1-1.36,4.36,18.27,18.27,0,0,1-3.74,4V30.3h3.68V27.35A17.9,17.9,0,0,0,29.71,23a9.22,9.22,0,0,0,1.4-5,6.1,6.1,0,0,0-1.63-4.54A6.2,6.2,0,0,0,24.89,11.87Z"></path><path d="M25,0A25,25,0,1,0,50,25,25,25,0,0,0,25,0Zm0,47.51A22.51,22.51,0,1,1,47.51,25,22.54,22.54,0,0,1,25,47.51Z"></path></g></g></svg>