<svg class="svg-inline icon-linkedin" role="img" aria-hidden="true" xmlns="http://www.w3.org/2000/svg" width="33" height="33" viewBox="0 0 958.74 946.58"><path d="M891.79,17.34H67A43.53,43.53,0,0,0,23.42,60.87V885.71A43.53,43.53,0,0,0,67,929.24H891.79a43.53,43.53,0,0,0,43.53-43.53V60.87A43.53,43.53,0,0,0,891.79,17.34ZM310.3,786.78H178.66V369.39H310.3ZM244.47,312a77,77,0,1,1,77-77A77,77,0,0,1,244.47,312ZM806.19,788.59H674.56V553.27c0-18.94-10.83-86.27-72.74-86.27s-73.33,73.33-73.33,73.33V786.78H396.86V369.37H528.47v47.84c11-17,49-63.21,138.24-63.21,109.43,0,139.48,107,139.48,186.33Z"></path></svg>