<svg width="78" height="72" viewBox="0 0 78 72" fill="none" xmlns="http://www.w3.org/2000/svg">
<path d="M60.3928 63.3543V46.1602L47.8958 64.1517L60.3928 63.3543Z" fill="#C8AE7D"/>
<path d="M65.0899 18.1109L62.1057 17.9609V64.1594C62.1057 64.6094 61.7505 64.9884 61.3005 65.0199L14.5889 68.0041V70.6566C14.5889 70.8145 14.652 70.9645 14.7704 71.075C14.8731 71.1776 15.0152 71.2329 15.1652 71.2329C15.1731 71.2329 15.1888 71.2329 15.1967 71.2329L65.0899 68.2251C65.3899 68.2093 65.6267 67.9567 65.6267 67.6567V18.6793C65.6267 18.3715 65.3899 18.1267 65.082 18.1109H65.0899Z" fill="#C8AE7D"/>
<path d="M15.1652 15.5691C15.0152 15.5691 14.881 15.6244 14.7704 15.727C14.6599 15.8375 14.5889 15.9875 14.5889 16.1454V26.5266L21.7807 15.9086L15.1888 15.577C15.1888 15.577 15.1731 15.577 15.1573 15.577L15.1652 15.5691Z" fill="#C8AE7D"/>
<path d="M14.5972 66.2753L37.9806 64.7832C38.0043 64.6885 38.0438 64.5937 38.1069 64.5148L60.393 33.1263V17.8742L31.7992 16.4216L14.5972 40.6893V66.2832V66.2753ZM28.0809 35.6605C28.5625 33.979 29.6283 32.7632 31.3729 32.1869C33.2439 31.5711 35.3123 32.2422 36.5596 33.8447C36.7017 34.0263 36.828 34.2237 36.9859 34.4447C37.0491 34.35 37.1043 34.2632 37.1596 34.1842C37.9254 33.0553 38.9674 32.2974 40.349 32.0448C41.9831 31.7527 43.3804 32.2422 44.533 33.3632C46.0961 34.871 46.5461 37.4209 45.6067 39.3551C45.2356 40.1209 44.6672 40.7524 44.083 41.3682C42.3857 43.1681 40.4832 44.747 38.549 46.2865C38.0359 46.697 37.5148 47.0917 36.978 47.5101C36.3228 46.997 35.6754 46.4996 35.0439 45.9944C33.3623 44.6523 31.7124 43.2787 30.2282 41.7313C29.6204 41.0998 29.0283 40.4366 28.5625 39.7103C27.7573 38.4551 27.6783 37.0578 28.0809 35.6605Z" fill="#C8AE7D"/>
<path d="M62.1059 64.1594V14.2426C62.1059 13.7847 61.7506 13.4058 61.2927 13.3821L56.335 13.1295C55.8692 13.1058 55.4587 13.469 55.435 13.9426C55.4113 14.4163 55.7745 14.8189 56.2481 14.8426L60.3927 15.0557V33.1183L38.1066 64.5068C38.0435 64.5936 38.004 64.6804 37.9803 64.7752L14.5969 66.2672L11.2654 66.4804V45.339C11.3049 45.2995 11.3443 45.26 11.3838 45.2127L14.6048 40.6733L31.8068 16.4057L33.7331 13.69L49.1668 14.4794C49.1668 14.4794 49.1984 14.4794 49.2142 14.4794C49.672 14.4794 50.051 14.1242 50.0747 13.6663C50.0983 13.1926 49.7352 12.79 49.2615 12.7663L10.6023 10.7927C10.547 10.7769 10.4838 10.769 10.4207 10.769C9.94702 10.769 9.56019 11.1559 9.56019 11.6295V66.283L1.71307 64.7041V13.6821L5.11559 13.2242C5.58926 13.1611 5.91294 12.7269 5.84978 12.2611C5.78662 11.7874 5.35243 11.4638 4.88665 11.5269L0.742051 12.0874C0.315749 12.1427 -3.05176e-05 12.5058 -3.05176e-05 12.94V65.4225C-3.05176e-05 65.833 0.292065 66.1804 0.686789 66.2672L9.95491 68.1303C10.0891 68.2172 10.247 68.2645 10.4207 68.2645C10.4365 68.2645 10.4523 68.2645 10.4681 68.2645C10.4838 68.2645 10.4996 68.2645 10.5233 68.2645C10.547 68.2645 10.5628 68.2645 10.5786 68.2645L14.6127 68.004L61.3243 65.0199C61.7743 64.9883 62.1295 64.6173 62.1295 64.1594H62.1059ZM11.2575 12.5532L23.6281 13.1848L21.7808 15.9083L14.589 26.5264L11.2575 31.4447V12.5532ZM11.2575 34.4998L25.6018 13.3269L31.6332 13.6663L11.2575 42.4101V34.4998ZM45.7406 64.5699L39.9066 64.941L60.3138 36.1972L60.2506 43.3496L45.8827 64.0252C45.7643 64.191 45.7248 64.3805 45.7327 64.5699H45.7406ZM60.3927 63.3542L47.8958 64.1515L60.3927 46.16V63.3542Z" fill="#4A4A4A"/>
<path d="M60.4401 6.80612C60.4401 6.80612 60.4637 6.80612 60.4795 6.80612C60.9532 6.78243 61.3163 6.37981 61.3006 5.90615L61.0637 0.8221C61.04 0.348431 60.6532 -0.0226097 60.1637 0.00107378C59.6901 0.0247572 59.3269 0.427376 59.3427 0.901045L59.5796 5.98509C59.6032 6.44297 59.9822 6.80612 60.4401 6.80612Z" fill="#4A4A4A"/>
<path d="M71.4293 4.56397C71.0819 4.24819 70.5372 4.27187 70.2135 4.61923L66.9847 8.16385C66.6689 8.51121 66.6926 9.05593 67.0399 9.3796C67.2057 9.52959 67.411 9.60064 67.6162 9.60064C67.8531 9.60064 68.082 9.50591 68.2478 9.31644L71.4766 5.77182C71.7924 5.42447 71.7687 4.87975 71.4214 4.55607L71.4293 4.56397Z" fill="#4A4A4A"/>
<path d="M76.1183 14.5348L71.0422 14.7716C70.5685 14.7953 70.2053 15.1979 70.2211 15.6716C70.2448 16.1295 70.6238 16.4926 71.0816 16.4926C71.0974 16.4926 71.1053 16.4926 71.1211 16.4926L76.1973 16.2558C76.6709 16.2321 77.0341 15.8295 77.0183 15.3558C76.9946 14.8821 76.5999 14.5111 76.1183 14.5348Z" fill="#4A4A4A"/>
</svg>
