<svg width="471" height="250" viewBox="0 0 471 250" fill="none" xmlns="http://www.w3.org/2000/svg">
<path d="M313.44 35.89L318.54 35.73C319.95 35.69 321.1 35.1 321.96 33.95C322.83 32.78 323.28 31.21 323.28 29.25C323.28 27.29 322.84 25.73 321.96 24.7C321.1 23.68 319.95 23.31 318.54 23.55L313.44 24.42C313.36 24.43 313.31 24.51 313.31 24.65V35.68C313.31 35.82 313.35 35.89 313.44 35.89Z" fill="#A67F41"/>
<path d="M289.57 206.61H300.28C300.26 206.51 300.25 206.41 300.25 206.3V203.02H284.74C285.38 205.09 287.29 206.61 289.57 206.61Z" fill="#A67F41"/>
<path d="M313.44 52.34L318.83 53.26C320.23 53.5 321.37 53.09 322.23 52.01C323.11 50.91 323.56 49.3 323.56 47.18C323.56 45.06 323.11 43.36 322.21 42.09C321.33 40.85 320.16 40.22 318.72 40.19L313.44 40.08C313.36 40.08 313.31 40.15 313.31 40.29V52.11C313.31 52.25 313.35 52.33 313.44 52.34Z" fill="#A67F41"/>
<path d="M378.22 142.02H376.62V196.44C376.62 200.07 373.68 203.01 370.05 203.01H303.24V206.29C303.24 206.4 303.23 206.5 303.21 206.6H378.22C381.02 206.6 383.29 204.32 383.29 201.53V147.09C383.29 144.29 381.01 142.01 378.22 142.01V142.02Z" fill="#A67F41"/>
<path d="M447.89 0H22.66C10.15 0 0 10.15 0 22.66V226.79C0 239.31 10.15 249.45 22.66 249.45H447.89C460.41 249.45 470.55 239.3 470.55 226.79V22.66C470.55 10.14 460.4 0 447.89 0ZM310.38 21.26C310.38 20.92 310.48 20.73 310.68 20.69L318.55 18.92C321.11 18.35 323.21 18.8 324.77 20.36C326.38 21.97 327.2 24.65 327.2 28.36C327.2 32.77 325.82 35.84 323.16 37.52C323.03 37.64 323.03 37.75 323.16 37.87C326.06 39.67 327.59 43.11 327.59 48.11C327.59 51.88 326.71 54.64 324.99 56.34C323.33 57.98 321.26 58.49 318.83 57.95L310.67 56.12C310.47 56.08 310.37 55.89 310.37 55.55V21.26H310.38ZM287.1 24.81C287.1 24.53 287.2 24.38 287.4 24.35L290.23 23.97C290.44 23.94 290.55 24.06 290.55 24.35V44.43C290.55 46.28 291 47.82 291.9 49.06C292.82 50.33 293.59 51.06 295.15 51.26C296.77 51.46 298.11 51.01 299.16 49.88C300.22 48.73 300.77 47.12 300.77 45.06V22.71C300.77 22.39 300.9 22.21 301.17 22.17L304.31 21.67C304.59 21.62 304.74 21.77 304.74 22.1V45.2C304.74 47.44 304.31 49.38 303.45 51C302.6 52.6 301.44 53.74 299.97 54.43C298.54 55.1 296.93 55.28 295.17 55C293.46 54.72 292.01 54.08 290.79 53.07C289.6 52.09 288.69 50.82 288.05 49.28C287.42 47.76 287.11 46.06 287.11 44.19V24.83L287.1 24.81ZM266.87 26.55C266.87 26.29 266.99 26.15 267.23 26.15L270.43 25.95C270.67 25.95 270.79 26.08 270.79 26.35V47.43C270.79 47.54 270.84 47.59 270.93 47.59L282.85 49C283.09 49 283.21 49.13 283.21 49.4V52.35C283.21 52.61 283.09 52.75 282.85 52.75L267.22 50.87C266.98 50.87 266.86 50.74 266.86 50.47V26.54L266.87 26.55ZM245.07 27.21L247.57 27.23C247.79 27.21 247.9 27.31 247.9 27.53V38.05C247.9 38.05 247.92 38.12 247.97 38.13C248.01 38.14 248.05 38.13 248.07 38.08L258.07 27.1C258.17 26.95 258.32 26.87 258.53 26.86L261.91 26.58C262.07 26.57 262.17 26.6 262.23 26.68C262.28 26.76 262.26 26.86 262.15 26.99L253.39 36.76C253.37 36.83 253.37 36.89 253.39 36.96L263.04 50.48C263.09 50.58 263.12 50.65 263.12 50.7C263.12 50.84 263.01 50.91 262.8 50.89L259.42 50.72C259.24 50.71 259.09 50.63 258.96 50.49L251.06 39.25C251.06 39.25 251 39.18 250.95 39.19C250.9 39.19 250.87 39.2 250.85 39.22L247.98 42.29C247.93 42.38 247.91 42.43 247.91 42.45L248.02 49.84C248.02 50.06 247.91 50.16 247.69 50.14L245.19 50C244.97 49.99 244.87 49.88 244.87 49.66L244.76 27.56C244.76 27.35 244.87 27.23 245.08 27.22L245.07 27.21ZM235.4 27.87C235.4 27.61 235.52 27.47 235.76 27.47L238.96 27.37C239.2 27.37 239.32 27.5 239.32 27.77V49.46C239.32 49.72 239.2 49.86 238.96 49.86L235.76 49.82C235.52 49.82 235.4 49.69 235.4 49.42V27.87ZM209.72 27.42C209.72 27.16 209.84 27.02 210.08 27.02L212.81 27.17C213 27.17 213.14 27.25 213.24 27.41L219.53 36.74C219.53 36.74 219.59 36.78 219.64 36.78C219.69 36.78 219.72 36.77 219.75 36.74L226 27.72C226.12 27.56 226.26 27.48 226.43 27.48H229.16C229.4 27.48 229.52 27.61 229.52 27.88V49.31C229.52 49.57 229.4 49.71 229.16 49.71H226.43C226.19 49.71 226.07 49.58 226.07 49.31V33.18C226.07 33.1 226.05 33.05 226 33.02C225.95 32.99 225.92 33.02 225.89 33.1L220.75 41.72C220.65 41.88 220.51 41.96 220.32 41.96H218.95C218.78 41.96 218.64 41.88 218.52 41.72L213.35 33.18C213.33 33.1 213.29 33.07 213.24 33.1C213.19 33.13 213.17 33.18 213.17 33.26V49.65C213.17 49.91 213.05 50.05 212.81 50.05L210.08 50.17C209.84 50.17 209.72 50.04 209.72 49.77V27.41V27.42ZM187.33 43.74C187.33 43.5 187.45 43.38 187.69 43.38H190.31C190.55 43.38 190.67 43.5 190.67 43.74V44.61C190.67 45.85 191.2 46.87 192.25 47.67C193.3 48.47 194.75 48.87 196.6 48.87C198.25 48.87 199.5 48.52 200.34 47.81C201.18 47.11 201.6 46.19 201.6 45.05C201.6 44.3 201.38 43.66 200.95 43.12C200.52 42.59 199.89 42.1 199.06 41.65C198.23 41.2 197.03 40.66 195.45 40.03C193.7 39.35 192.32 38.73 191.3 38.17C190.28 37.61 189.44 36.88 188.77 35.97C188.1 35.06 187.76 33.91 187.76 32.53C187.76 30.44 188.5 28.81 189.97 27.62C191.44 26.43 193.44 25.84 195.95 25.84C197.72 25.84 199.28 26.14 200.62 26.75C201.96 27.36 203 28.21 203.73 29.3C204.46 30.39 204.83 31.65 204.83 33.08V33.81C204.83 34.05 204.71 34.17 204.47 34.17H201.78C201.54 34.17 201.42 34.05 201.42 33.81V33.26C201.42 32 200.92 30.95 199.93 30.11C198.94 29.27 197.56 28.86 195.82 28.86C194.33 28.86 193.19 29.17 192.37 29.79C191.56 30.41 191.15 31.3 191.15 32.46C191.15 33.26 191.35 33.92 191.76 34.42C192.17 34.93 192.77 35.38 193.57 35.78C194.37 36.18 195.6 36.7 197.25 37.33C198.95 38.01 200.33 38.63 201.38 39.2C202.43 39.77 203.31 40.52 204 41.46C204.69 42.39 205.04 43.55 205.04 44.93C205.04 47.06 204.27 48.76 202.72 50C201.18 51.25 199.05 51.87 196.34 51.87C194.5 51.87 192.9 51.58 191.54 51C190.19 50.42 189.14 49.59 188.41 48.53C187.68 47.46 187.31 46.21 187.31 44.78V43.72L187.33 43.74ZM165.3 22.64C165.3 22.34 165.45 22.21 165.73 22.26L168.85 22.74C169.11 22.78 169.24 22.95 169.24 23.24L168.9 44.34C168.87 46.36 169.41 47.96 170.52 49.11C171.61 50.25 173.01 50.72 174.7 50.55C176.34 50.39 177.22 49.52 178.17 48.28C179.1 47.07 179.56 45.56 179.56 43.75L179.54 24.7C179.54 24.44 179.65 24.32 179.86 24.36L182.65 24.88C182.85 24.91 182.96 25.05 182.96 25.31L183.07 43.7C183.08 45.54 182.77 47.2 182.13 48.7C181.48 50.22 180.53 51.47 179.29 52.43C178.01 53.42 176.47 54.05 174.68 54.29C172.82 54.54 171.14 54.33 169.65 53.62C168.12 52.9 166.92 51.73 166.06 50.13C165.19 48.51 164.77 46.59 164.82 44.4L165.31 22.64H165.3ZM142.96 17.65C142.96 17.38 143.05 17.28 143.26 17.2L146.23 17.79C146.38 17.83 146.56 17.87 146.56 18.08L146.51 38.92C146.51 38.97 146.53 39 146.58 39.01C146.62 39.01 146.66 38.99 146.68 38.93L158.29 21C158.4 20.79 158.56 20.65 158.77 20.59L161.18 21.1C161.35 21.05 161.54 21.4 161.43 21.59L151.98 36.4C151.95 36.49 151.95 36.58 151.98 36.66L162.1 54.95C162.15 55.07 162.18 55.16 162.18 55.22C162.18 55.4 162.06 55.49 161.84 55.5L158.82 56.12C158.63 56.12 158.48 56.04 158.35 55.87L149.63 39.94C149.61 39.89 149.57 39.87 149.53 39.87C149.48 39.87 149.45 39.9 149.43 39.93L146.58 44.2C146.53 44.31 146.51 44.38 146.51 44.41L146.48 58.88C146.48 59.14 146.37 59.28 146.15 59.28L143.27 59.94C143.06 59.94 142.96 59.81 142.96 59.56V17.65ZM136.61 227.59C133.58 227.59 130.6 227.36 127.68 226.91C95.61 226.88 69.62 200.88 69.62 168.8C69.62 136.72 95.61 110.72 127.68 110.69C130.59 110.24 133.57 110.01 136.61 110.01C148.5 110.01 159.95 113.54 169.73 120.22C170.41 120.69 170.59 121.62 170.12 122.3C169.65 122.98 168.72 123.16 168.04 122.69C161.66 118.33 154.53 115.39 147.04 113.97C169.64 121.93 185.85 143.46 185.85 168.78C185.85 194.1 169.7 215.56 147.17 223.55C172.9 218.6 192.4 195.93 192.4 168.78C192.4 157.6 189.11 146.82 182.87 137.59C182.41 136.9 182.59 135.97 183.27 135.51C183.96 135.05 184.89 135.23 185.35 135.91C191.92 145.63 195.39 157 195.39 168.78C195.39 201.19 169.02 227.57 136.6 227.57L136.61 227.59ZM252.04 180.66C252.04 180.95 251.94 181.19 251.74 181.39C251.54 181.59 251.29 181.69 251.01 181.69H216.12C215.83 181.69 215.59 181.59 215.39 181.39C215.19 181.19 215.09 180.94 215.09 180.66V172.28C215.09 171.99 215.19 171.75 215.39 171.55C215.59 171.35 215.84 171.25 216.12 171.25H251.01C251.3 171.25 251.54 171.35 251.74 171.55C251.94 171.75 252.04 172 252.04 172.28V180.66ZM252.04 164.07C252.04 164.36 251.94 164.6 251.74 164.8C251.54 165 251.29 165.1 251.01 165.1H216.12C215.83 165.1 215.59 165 215.39 164.8C215.19 164.6 215.09 164.35 215.09 164.07V155.69C215.09 155.4 215.19 155.16 215.39 154.96C215.59 154.76 215.84 154.66 216.12 154.66H251.01C251.3 154.66 251.54 154.76 251.74 154.96C251.94 155.16 252.04 155.41 252.04 155.69V164.07ZM386.3 201.53C386.3 205.98 382.68 209.6 378.23 209.6H289.57C285.62 209.6 282.34 206.75 281.64 203.01H281.4C277.77 203.01 274.83 200.07 274.83 196.44V178.19C274.97 178.19 275.12 178.21 275.26 178.21C280.22 178.21 284.25 174.19 284.25 169.22C284.25 168.4 284.13 167.6 283.92 166.85C283.76 166.84 283.59 166.83 283.43 166.83C283.37 166.83 283.31 166.83 283.25 166.83L281.5 166.91V162.75C279.88 161.19 277.69 160.23 275.26 160.23C275.11 160.23 274.97 160.24 274.83 160.25V142C274.83 138.37 277.77 135.43 281.4 135.43H370.06C372.62 135.43 374.82 136.89 375.91 139.02H378.23C382.68 139.02 386.3 142.64 386.3 147.1V201.54V201.53ZM377.72 122.85C377.72 122.02 378.39 121.35 379.22 121.35H384.65C385.48 121.35 386.15 122.02 386.15 122.85C386.15 123.68 385.48 124.35 384.65 124.35H379.22C378.39 124.35 377.72 123.68 377.72 122.85ZM391.57 133.7C391.57 134.53 390.9 135.2 390.07 135.2C389.24 135.2 388.57 134.53 388.57 133.7V128.27C388.57 127.44 389.24 126.77 390.07 126.77C390.9 126.77 391.57 127.44 391.57 128.27V133.7ZM391.57 117.43C391.57 118.26 390.9 118.93 390.07 118.93C389.24 118.93 388.57 118.26 388.57 117.43V112C388.57 111.17 389.24 110.5 390.07 110.5C390.9 110.5 391.57 111.17 391.57 112V117.43ZM400.93 124.35H395.5C394.67 124.35 394 123.68 394 122.85C394 122.02 394.67 121.35 395.5 121.35H400.93C401.76 121.35 402.43 122.02 402.43 122.85C402.43 123.68 401.76 124.35 400.93 124.35ZM456.36 78.8H14.19V75.8H456.36V78.8Z" fill="#A67F41"/>
<path d="M105.17 177.99C104.32 177.99 103.67 178.39 103.25 179.19C102.86 179.86 102.67 180.8 102.67 182C102.67 183.2 102.87 184.21 103.28 184.9C103.71 185.64 104.34 186.01 105.17 186.01C106 186.01 106.65 185.65 107.12 184.92C107.58 184.2 107.82 183.21 107.82 181.97C107.82 180.8 107.63 179.87 107.24 179.18C106.81 178.38 106.12 177.98 105.18 177.98L105.17 177.99Z" fill="#C8AE7D"/>
<path d="M122.19 178.52C121.76 178.17 121.24 177.99 120.63 177.99C120.02 177.99 119.47 178.16 119.06 178.52C118.64 178.87 118.34 179.37 118.15 180C118 180.45 117.93 181.11 117.93 181.98C117.93 182.85 117.99 183.46 118.12 183.93C118.31 184.58 118.62 185.09 119.05 185.46C119.49 185.83 120.02 186.02 120.65 186.02C121.28 186.02 121.78 185.84 122.21 185.46C122.64 185.09 122.94 184.58 123.13 183.93C123.28 183.34 123.35 182.69 123.35 181.98C123.35 181.2 123.28 180.54 123.13 180C122.92 179.37 122.61 178.88 122.18 178.52H122.19Z" fill="#C8AE7D"/>
<path d="M77.8201 168.81C77.8201 139.43 99.4901 115.01 127.68 110.7C95.6101 110.73 69.6201 136.73 69.6201 168.81C69.6201 200.89 95.6101 226.89 127.68 226.92C99.4901 222.61 77.8201 198.19 77.8201 168.81Z" fill="#C8AE7D"/>
<path d="M80.8201 168.81C80.8201 199.57 105.85 224.6 136.61 224.6C140.22 224.6 143.74 224.24 147.16 223.59C169.7 215.6 185.84 194.1 185.84 168.82C185.84 143.54 169.63 121.97 147.03 114.01C143.62 113.37 140.13 113.04 136.6 113.04C105.84 113.04 80.8101 138.07 80.8101 168.83L80.8201 168.81ZM111.36 185.51C110.93 186.7 110.26 187.64 109.34 188.34C108.42 189.04 107.28 189.38 105.93 189.38C104.58 189.38 103.55 188.92 102.81 187.99C102.77 187.93 102.74 187.92 102.7 187.93C102.66 187.95 102.64 187.99 102.64 188.04V194C102.64 194.09 102.61 194.17 102.54 194.24C102.48 194.3 102.4 194.34 102.3 194.34H99.0401C98.9501 194.34 98.8701 194.31 98.8001 194.24C98.7401 194.17 98.7001 194.09 98.7001 194V175.17C98.7001 175.08 98.7301 175 98.8001 174.93C98.8601 174.86 98.9401 174.83 99.0401 174.83H102.3C102.39 174.83 102.47 174.86 102.54 174.93C102.61 175 102.64 175.08 102.64 175.17V176.09C102.64 176.15 102.66 176.18 102.7 176.19C102.74 176.19 102.77 176.19 102.81 176.15C103.59 175.13 104.67 174.62 106.04 174.62C107.32 174.62 108.43 174.98 109.37 175.69C110.31 176.4 110.98 177.4 111.39 178.68C111.72 179.63 111.89 180.74 111.89 182.02C111.89 183.3 111.71 184.46 111.36 185.5V185.51ZM126.93 184.73C126.52 186.18 125.76 187.32 124.66 188.14C123.55 188.97 122.22 189.38 120.66 189.38C119.1 189.38 117.76 188.97 116.65 188.16C115.54 187.34 114.77 186.23 114.37 184.82C114.11 183.95 113.98 183 113.98 181.98C113.98 180.88 114.11 179.9 114.37 179.03C114.8 177.66 115.57 176.58 116.68 175.8C117.79 175.02 119.13 174.63 120.69 174.63C122.25 174.63 123.51 175.02 124.59 175.79C125.67 176.56 126.43 177.63 126.87 179.01C127.17 179.94 127.32 180.91 127.32 181.93C127.32 182.95 127.19 183.87 126.93 184.74V184.73ZM133.89 188.83C133.89 188.92 133.86 189 133.79 189.07C133.73 189.14 133.65 189.17 133.55 189.17H130.29C130.2 189.17 130.12 189.14 130.05 189.07C129.98 189 129.95 188.93 129.95 188.83V175.15C129.95 175.06 129.98 174.98 130.05 174.91C130.11 174.84 130.19 174.81 130.29 174.81H133.55C133.64 174.81 133.72 174.84 133.79 174.91C133.86 174.97 133.89 175.05 133.89 175.15V188.83ZM133.54 172.6C133.12 173.02 132.6 173.23 131.97 173.23C131.34 173.23 130.81 173.02 130.4 172.6C129.98 172.18 129.77 171.66 129.77 171.03C129.77 170.4 129.97 169.85 130.38 169.44C130.79 169.03 131.32 168.83 131.97 168.83C132.62 168.83 133.15 169.03 133.56 169.44C133.97 169.85 134.17 170.38 134.17 171.03C134.17 171.68 133.96 172.18 133.54 172.6ZM135.57 146.64C135.57 146.75 135.54 146.89 135.49 147.06L129.47 162.74C129.41 162.91 129.29 162.99 129.08 162.99H125.6C125.32 162.99 125.23 162.86 125.32 162.6L131.37 147.03C131.41 146.92 131.37 146.86 131.26 146.86H126.05C125.96 146.86 125.91 146.91 125.91 147V148.28C125.91 148.37 125.88 148.45 125.81 148.52C125.74 148.59 125.67 148.62 125.57 148.62H123.03C122.94 148.62 122.86 148.59 122.79 148.52C122.72 148.46 122.69 148.38 122.69 148.28L122.72 143.82C122.72 143.73 122.75 143.65 122.82 143.58C122.88 143.52 122.96 143.48 123.06 143.48H135.23C135.32 143.48 135.4 143.51 135.47 143.58C135.53 143.65 135.57 143.73 135.57 143.82V146.64ZM162.31 184.93C162.31 184.84 162.34 184.76 162.41 184.69C162.47 184.62 162.55 184.59 162.65 184.59H165.74C165.83 184.59 165.91 184.62 165.98 184.69C166.04 184.76 166.08 184.83 166.08 184.93V184.96C166.08 185.37 166.31 185.72 166.76 186C167.21 186.29 167.79 186.43 168.47 186.43C169.1 186.43 169.61 186.3 170 186.05C170.39 185.8 170.58 185.49 170.58 185.12C170.58 184.79 170.41 184.54 170.08 184.37C169.75 184.2 169.2 184.03 168.44 183.84C167.57 183.62 166.88 183.4 166.38 183.2C165.19 182.79 164.24 182.29 163.54 181.7C162.83 181.11 162.48 180.25 162.48 179.14C162.48 177.77 163.01 176.68 164.08 175.87C165.15 175.06 166.56 174.66 168.33 174.66C169.52 174.66 170.56 174.85 171.45 175.23C172.34 175.61 173.03 176.14 173.53 176.83C174.02 177.52 174.27 178.3 174.27 179.17C174.27 179.26 174.24 179.34 174.17 179.41C174.11 179.48 174.03 179.51 173.93 179.51H170.95C170.86 179.51 170.78 179.48 170.71 179.41C170.64 179.34 170.61 179.27 170.61 179.17C170.61 178.76 170.4 178.42 169.98 178.14C169.56 177.86 169.01 177.72 168.32 177.72C167.71 177.72 167.21 177.83 166.81 178.05C166.42 178.27 166.23 178.58 166.23 178.97C166.23 179.36 166.42 179.62 166.8 179.8C167.18 179.99 167.82 180.18 168.71 180.38C168.91 180.44 169.15 180.5 169.41 180.56C169.67 180.63 169.95 180.71 170.25 180.8C171.57 181.19 172.61 181.69 173.37 182.3C174.13 182.91 174.51 183.81 174.51 184.98C174.51 186.35 173.97 187.43 172.88 188.2C171.79 188.97 170.33 189.36 168.49 189.36C167.25 189.36 166.16 189.18 165.23 188.83C164.3 188.48 163.58 187.98 163.07 187.35C162.56 186.72 162.3 186 162.3 185.21V184.93H162.31ZM151.42 175.17C151.42 175.08 151.45 175 151.52 174.93C151.58 174.86 151.66 174.83 151.76 174.83H153.35C153.44 174.83 153.49 174.78 153.49 174.69V171.37C153.49 171.28 153.52 171.2 153.59 171.13C153.66 171.06 153.73 171.03 153.83 171.03H156.95C157.04 171.03 157.12 171.06 157.19 171.13C157.25 171.2 157.29 171.27 157.29 171.37V174.69C157.29 174.78 157.34 174.83 157.43 174.83H160.1C160.19 174.83 160.27 174.86 160.34 174.93C160.4 175 160.44 175.08 160.44 175.17V177.65C160.44 177.74 160.41 177.82 160.34 177.89C160.27 177.95 160.2 177.99 160.1 177.99H157.43C157.34 177.99 157.29 178.04 157.29 178.13V184.04C157.29 184.65 157.41 185.11 157.67 185.4C157.92 185.7 158.32 185.85 158.88 185.85H159.8C159.89 185.85 159.97 185.88 160.04 185.95C160.1 186.02 160.14 186.09 160.14 186.19V188.84C160.14 189.04 160.03 189.16 159.81 189.2C159.03 189.24 158.47 189.26 158.14 189.26C156.6 189.26 155.45 189 154.69 188.49C153.93 187.98 153.54 187.02 153.52 185.61V178.14C153.52 178.05 153.47 178 153.38 178H151.79C151.7 178 151.62 177.97 151.55 177.9C151.48 177.83 151.45 177.75 151.45 177.66V175.18L151.42 175.17ZM137.24 149.57C137.24 147.64 137.84 146.11 139.02 144.97C140.21 143.84 141.82 143.27 143.87 143.27C145.92 143.27 147.53 143.84 148.73 144.97C149.93 146.1 150.53 147.63 150.53 149.57V156.92C150.53 158.89 149.93 160.45 148.73 161.59C147.53 162.73 145.91 163.3 143.87 163.3C141.83 163.3 140.21 162.73 139.02 161.59C137.83 160.45 137.24 158.89 137.24 156.92V149.57ZM136.96 175.17C136.96 175.08 136.99 175 137.06 174.93C137.12 174.86 137.2 174.83 137.3 174.83H140.56C140.65 174.83 140.73 174.86 140.8 174.93C140.86 175 140.9 175.08 140.9 175.17V176.15C140.9 176.2 140.92 176.24 140.96 176.26C141 176.28 141.03 176.26 141.04 176.23C141.8 175.15 142.93 174.62 144.44 174.62C145.95 174.62 147.12 175.07 148.03 175.98C148.94 176.89 149.39 178.12 149.39 179.68V188.82C149.39 188.91 149.36 188.99 149.29 189.06C149.22 189.13 149.15 189.16 149.05 189.16H145.79C145.7 189.16 145.62 189.13 145.55 189.06C145.48 188.99 145.45 188.92 145.45 188.82V180.49C145.45 179.75 145.24 179.15 144.82 178.68C144.4 178.22 143.85 177.98 143.16 177.98C142.47 177.98 141.92 178.21 141.5 178.68C141.08 179.14 140.87 179.75 140.87 180.49V188.82C140.87 188.91 140.84 188.99 140.77 189.06C140.71 189.13 140.63 189.16 140.53 189.16H137.27C137.18 189.16 137.1 189.13 137.03 189.06C136.96 188.99 136.93 188.92 136.93 188.82V175.17H136.96Z" fill="#C8AE7D"/>
<path d="M143.87 159.93C144.71 159.93 145.37 159.68 145.86 159.16C146.35 158.65 146.6 157.97 146.6 157.11V149.45C146.6 148.6 146.35 147.91 145.86 147.4C145.37 146.89 144.7 146.63 143.87 146.63C143.04 146.63 142.4 146.89 141.91 147.4C141.42 147.91 141.17 148.59 141.17 149.45V157.11C141.17 157.96 141.42 158.65 141.91 159.16C142.4 159.67 143.06 159.93 143.87 159.93Z" fill="#C8AE7D"/>
<path d="M183.27 135.54C182.58 136 182.4 136.94 182.87 137.62C189.1 146.84 192.4 157.63 192.4 168.81C192.4 195.96 172.9 218.63 147.17 223.58C143.75 224.24 140.22 224.59 136.62 224.59C105.86 224.59 80.8301 199.56 80.8301 168.8C80.8301 138.04 105.86 113.01 136.62 113.01C140.15 113.01 143.64 113.34 147.05 113.98C154.55 115.4 161.68 118.34 168.05 122.7C168.73 123.17 169.67 122.99 170.13 122.31C170.6 121.63 170.42 120.69 169.74 120.23C159.96 113.55 148.51 110.02 136.62 110.02C133.59 110.02 130.6 110.25 127.69 110.7C99.5001 115.01 77.8301 139.43 77.8301 168.81C77.8301 198.19 99.5001 222.61 127.69 226.92C130.6 227.37 133.58 227.6 136.62 227.6C169.03 227.6 195.41 201.23 195.41 168.81C195.41 157.03 191.94 145.66 185.37 135.94C184.91 135.25 183.97 135.07 183.29 135.54H183.27Z" fill="white"/>
<path d="M135.23 143.49H123.06C122.97 143.49 122.89 143.52 122.82 143.59C122.76 143.66 122.72 143.74 122.72 143.83L122.69 148.29C122.69 148.38 122.72 148.46 122.79 148.53C122.85 148.6 122.93 148.63 123.03 148.63H125.57C125.66 148.63 125.74 148.6 125.81 148.53C125.87 148.47 125.91 148.39 125.91 148.29V147.01C125.91 146.92 125.96 146.87 126.05 146.87H131.26C131.37 146.87 131.41 146.93 131.37 147.04L125.32 162.61C125.23 162.87 125.32 163 125.6 163H129.08C129.29 163 129.41 162.92 129.47 162.75L135.49 147.07C135.55 146.9 135.57 146.76 135.57 146.65V143.84C135.57 143.75 135.54 143.67 135.47 143.6C135.4 143.54 135.33 143.5 135.23 143.5V143.49Z" fill="white"/>
<path d="M143.87 163.3C145.91 163.3 147.53 162.73 148.73 161.59C149.93 160.45 150.53 158.89 150.53 156.92V149.57C150.53 147.64 149.93 146.11 148.73 144.97C147.53 143.84 145.91 143.27 143.87 143.27C141.83 143.27 140.21 143.84 139.02 144.97C137.83 146.1 137.24 147.63 137.24 149.57V156.92C137.24 158.89 137.84 160.45 139.02 161.59C140.21 162.73 141.82 163.3 143.87 163.3ZM141.16 149.46C141.16 148.61 141.41 147.92 141.9 147.41C142.39 146.9 143.05 146.64 143.86 146.64C144.67 146.64 145.36 146.9 145.85 147.41C146.34 147.92 146.59 148.6 146.59 149.46V157.12C146.59 157.97 146.34 158.66 145.85 159.17C145.36 159.68 144.69 159.94 143.86 159.94C143.03 159.94 142.39 159.69 141.9 159.17C141.41 158.66 141.16 157.98 141.16 157.12V149.46Z" fill="white"/>
<path d="M109.36 175.69C108.42 174.97 107.31 174.62 106.03 174.62C104.65 174.62 103.58 175.13 102.8 176.15C102.76 176.19 102.73 176.2 102.69 176.19C102.65 176.19 102.63 176.15 102.63 176.09V175.17C102.63 175.08 102.6 175 102.53 174.93C102.47 174.86 102.39 174.83 102.29 174.83H99.0299C98.9399 174.83 98.8599 174.86 98.7899 174.93C98.7299 175 98.6899 175.08 98.6899 175.17V194C98.6899 194.09 98.7199 194.17 98.7899 194.24C98.8499 194.3 98.9299 194.34 99.0299 194.34H102.29C102.38 194.34 102.46 194.31 102.53 194.24C102.6 194.17 102.63 194.09 102.63 194V188.04C102.63 187.99 102.65 187.95 102.69 187.93C102.73 187.91 102.76 187.93 102.8 187.99C103.54 188.92 104.58 189.38 105.92 189.38C107.26 189.38 108.41 189.03 109.33 188.34C110.25 187.64 110.92 186.7 111.35 185.51C111.7 184.47 111.88 183.31 111.88 182.03C111.88 180.75 111.71 179.64 111.38 178.69C110.97 177.41 110.3 176.41 109.36 175.7V175.69ZM107.12 184.93C106.66 185.66 106.01 186.02 105.17 186.02C104.33 186.02 103.7 185.65 103.28 184.91C102.87 184.22 102.67 183.26 102.67 182.01C102.67 180.76 102.86 179.87 103.25 179.2C103.68 178.4 104.32 178 105.17 178C106.12 178 106.8 178.4 107.23 179.2C107.62 179.89 107.81 180.82 107.81 181.99C107.81 183.23 107.58 184.22 107.11 184.94L107.12 184.93Z" fill="white"/>
<path d="M124.59 175.78C123.51 175.01 122.21 174.62 120.69 174.62C119.17 174.62 117.79 175.01 116.68 175.79C115.57 176.57 114.79 177.65 114.37 179.02C114.11 179.89 113.98 180.88 113.98 181.97C113.98 182.99 114.11 183.94 114.37 184.81C114.78 186.22 115.54 187.34 116.65 188.15C117.76 188.97 119.1 189.37 120.66 189.37C122.22 189.37 123.55 188.96 124.66 188.13C125.77 187.3 126.52 186.17 126.93 184.72C127.19 183.85 127.32 182.91 127.32 181.91C127.32 180.91 127.17 179.91 126.87 178.99C126.42 177.62 125.66 176.54 124.59 175.77V175.78ZM123.14 183.92C122.95 184.57 122.65 185.08 122.22 185.45C121.79 185.82 121.27 186.01 120.66 186.01C120.05 186.01 119.49 185.83 119.06 185.45C118.62 185.08 118.31 184.57 118.13 183.92C118 183.46 117.94 182.8 117.94 181.97C117.94 181.14 118.01 180.44 118.16 179.99C118.34 179.36 118.65 178.87 119.07 178.51C119.49 178.16 120.01 177.98 120.64 177.98C121.27 177.98 121.77 178.15 122.2 178.51C122.63 178.87 122.94 179.36 123.15 179.99C123.3 180.53 123.37 181.19 123.37 181.97C123.37 182.68 123.3 183.33 123.15 183.92H123.14Z" fill="white"/>
<path d="M131.97 168.82C131.32 168.82 130.79 169.02 130.38 169.43C129.97 169.84 129.77 170.37 129.77 171.02C129.77 171.67 129.98 172.17 130.4 172.59C130.82 173.01 131.34 173.22 131.97 173.22C132.6 173.22 133.13 173.01 133.54 172.59C133.96 172.17 134.17 171.65 134.17 171.02C134.17 170.39 133.97 169.84 133.56 169.43C133.15 169.02 132.62 168.82 131.97 168.82Z" fill="white"/>
<path d="M133.56 174.81H130.3C130.21 174.81 130.13 174.84 130.06 174.91C130 174.97 129.96 175.05 129.96 175.15V188.83C129.96 188.92 129.99 189 130.06 189.07C130.13 189.14 130.2 189.17 130.3 189.17H133.56C133.65 189.17 133.73 189.14 133.8 189.07C133.87 189 133.9 188.93 133.9 188.83V175.15C133.9 175.06 133.87 174.98 133.8 174.91C133.74 174.84 133.66 174.81 133.56 174.81Z" fill="white"/>
<path d="M137.29 189.16H140.55C140.64 189.16 140.72 189.13 140.79 189.06C140.85 188.99 140.89 188.92 140.89 188.82V180.49C140.89 179.75 141.1 179.15 141.52 178.68C141.94 178.22 142.49 177.98 143.18 177.98C143.87 177.98 144.42 178.21 144.84 178.68C145.26 179.14 145.47 179.75 145.47 180.49V188.82C145.47 188.91 145.5 188.99 145.57 189.06C145.63 189.13 145.71 189.16 145.81 189.16H149.07C149.16 189.16 149.24 189.13 149.31 189.06C149.37 188.99 149.41 188.92 149.41 188.82V179.68C149.41 178.12 148.95 176.88 148.05 175.98C147.14 175.07 145.94 174.62 144.46 174.62C142.98 174.62 141.82 175.16 141.06 176.23C141.04 176.27 141.01 176.28 140.98 176.26C140.95 176.24 140.92 176.2 140.92 176.15V175.17C140.92 175.08 140.89 175 140.82 174.93C140.76 174.86 140.68 174.83 140.58 174.83H137.32C137.23 174.83 137.15 174.86 137.08 174.93C137.01 175 136.98 175.08 136.98 175.17V188.82C136.98 188.91 137.01 188.99 137.08 189.06C137.14 189.13 137.22 189.16 137.32 189.16H137.29Z" fill="white"/>
<path d="M151.75 177.99H153.34C153.43 177.99 153.48 178.04 153.48 178.13V185.6C153.5 187.01 153.89 187.97 154.65 188.48C155.41 188.99 156.56 189.25 158.1 189.25C158.43 189.25 158.99 189.23 159.77 189.19C159.99 189.15 160.1 189.03 160.1 188.83V186.18C160.1 186.09 160.07 186.01 160 185.94C159.93 185.87 159.85 185.84 159.76 185.84H158.84C158.28 185.84 157.88 185.69 157.63 185.39C157.38 185.09 157.25 184.64 157.25 184.03V178.12C157.25 178.03 157.3 177.98 157.39 177.98H160.06C160.15 177.98 160.23 177.95 160.3 177.88C160.36 177.81 160.4 177.73 160.4 177.64V175.16C160.4 175.07 160.37 174.99 160.3 174.92C160.23 174.85 160.16 174.82 160.06 174.82H157.39C157.3 174.82 157.25 174.77 157.25 174.68V171.36C157.25 171.27 157.22 171.19 157.15 171.12C157.08 171.05 157.01 171.02 156.91 171.02H153.79C153.7 171.02 153.62 171.05 153.55 171.12C153.49 171.19 153.45 171.26 153.45 171.36V174.68C153.45 174.77 153.4 174.82 153.31 174.82H151.72C151.63 174.82 151.55 174.85 151.48 174.92C151.41 174.99 151.38 175.07 151.38 175.16V177.64C151.38 177.73 151.41 177.81 151.48 177.88C151.54 177.94 151.62 177.98 151.72 177.98L151.75 177.99Z" fill="white"/>
<path d="M165.24 188.83C166.17 189.18 167.25 189.36 168.5 189.36C170.34 189.36 171.8 188.97 172.89 188.2C173.98 187.43 174.52 186.36 174.52 184.98C174.52 183.81 174.14 182.92 173.38 182.3C172.62 181.69 171.58 181.19 170.26 180.8C169.96 180.71 169.68 180.63 169.42 180.56C169.16 180.5 168.93 180.44 168.72 180.38C167.83 180.18 167.19 179.98 166.81 179.8C166.43 179.61 166.24 179.34 166.24 178.97C166.24 178.58 166.44 178.27 166.82 178.05C167.21 177.83 167.71 177.72 168.33 177.72C169.02 177.72 169.57 177.86 169.99 178.14C170.41 178.42 170.62 178.76 170.62 179.17C170.62 179.26 170.65 179.34 170.72 179.41C170.78 179.48 170.86 179.51 170.96 179.51H173.94C174.03 179.51 174.11 179.48 174.18 179.41C174.24 179.34 174.28 179.27 174.28 179.17C174.28 178.3 174.03 177.52 173.54 176.83C173.05 176.14 172.36 175.61 171.46 175.23C170.57 174.85 169.53 174.66 168.34 174.66C166.57 174.66 165.16 175.06 164.09 175.87C163.02 176.68 162.49 177.77 162.49 179.14C162.49 180.26 162.84 181.11 163.55 181.7C164.26 182.29 165.2 182.8 166.39 183.2C166.89 183.41 167.58 183.62 168.45 183.84C169.21 184.03 169.76 184.2 170.09 184.37C170.42 184.54 170.59 184.79 170.59 185.12C170.59 185.49 170.4 185.8 170.01 186.05C169.62 186.3 169.11 186.43 168.48 186.43C167.79 186.43 167.22 186.28 166.77 186C166.31 185.71 166.09 185.37 166.09 184.96V184.93C166.09 184.84 166.06 184.76 165.99 184.69C165.92 184.62 165.85 184.59 165.75 184.59H162.66C162.57 184.59 162.49 184.62 162.42 184.69C162.36 184.76 162.32 184.83 162.32 184.93V185.21C162.32 186.01 162.58 186.72 163.09 187.35C163.6 187.98 164.32 188.47 165.25 188.83H165.24Z" fill="white"/>
<path d="M289.57 139.02H375.91C374.82 136.89 372.61 135.43 370.06 135.43H281.4C277.77 135.43 274.83 138.37 274.83 142V160.25C274.97 160.25 275.12 160.23 275.26 160.23C277.68 160.23 279.88 161.19 281.5 162.75L281.5 147.09C281.5 142.64 285.12 139.01 289.58 139.01L289.57 139.02Z" fill="#C8AE7D"/>
<path d="M281.49 181.71L283.24 181.79C283.3 181.79 283.36 181.79 283.42 181.79C287.55 181.79 290.91 178.43 290.91 174.3C290.91 170.17 287.81 167.09 283.91 166.84C284.12 167.6 284.24 168.39 284.24 169.21C284.24 174.17 280.22 178.2 275.25 178.2C275.1 178.2 274.96 178.18 274.82 178.18V196.43C274.82 200.06 277.76 203 281.39 203H281.63C281.54 202.52 281.49 202.02 281.49 201.52V181.7V181.71Z" fill="#C8AE7D"/>
<path d="M376.63 142.02H303.22C303.24 142.12 303.25 142.22 303.25 142.33V149.33C303.25 150.16 302.58 150.83 301.75 150.83C300.92 150.83 300.25 150.16 300.25 149.33V142.33C300.25 142.22 300.26 142.12 300.28 142.02H289.57C286.77 142.02 284.49 144.3 284.49 147.1V163.88C289.77 164.42 293.91 168.89 293.91 174.32C293.91 179.75 289.77 184.22 284.49 184.76V201.54C284.49 202.06 284.59 202.55 284.74 203.02H300.25V199.3C300.25 198.47 300.92 197.8 301.75 197.8C302.58 197.8 303.25 198.47 303.25 199.3V203.02H370.06C373.69 203.02 376.63 200.08 376.63 196.45V142.02ZM303.25 189.93C303.25 190.76 302.58 191.43 301.75 191.43C300.92 191.43 300.25 190.76 300.25 189.93V179C300.25 178.17 300.92 177.5 301.75 177.5C302.58 177.5 303.25 178.17 303.25 179V189.93ZM303.25 169.63C303.25 170.46 302.58 171.13 301.75 171.13C300.92 171.13 300.25 170.46 300.25 169.63V158.7C300.25 157.87 300.92 157.2 301.75 157.2C302.58 157.2 303.25 157.87 303.25 158.7V169.63ZM338.73 182.14C338.18 183.67 337.21 184.88 335.82 185.78C334.43 186.68 332.81 187.13 330.94 187.13C329.07 187.13 327.53 186.69 326.15 185.82C324.77 184.95 323.8 183.76 323.23 182.25C322.99 181.63 322.81 180.97 322.69 180.28V180.21C322.69 179.95 322.83 179.82 323.12 179.82H327.46C327.7 179.82 327.85 179.95 327.93 180.21C327.95 180.35 327.99 180.47 328.04 180.57C328.09 180.67 328.12 180.75 328.15 180.82C328.39 181.44 328.75 181.92 329.23 182.25C329.71 182.58 330.27 182.75 330.92 182.75C331.57 182.75 332.18 182.57 332.68 182.21C333.18 181.85 333.55 181.35 333.79 180.7C334.03 180.22 334.15 179.6 334.15 178.83C334.15 178.14 334.04 177.51 333.83 176.96C333.66 176.34 333.33 175.86 332.83 175.53C332.33 175.2 331.74 175.03 331.07 175.03C330.4 175.03 329.78 175.19 329.2 175.5C328.63 175.81 328.24 176.22 328.05 176.72C327.98 176.96 327.82 177.08 327.58 177.08H323.17C323.05 177.08 322.95 177.04 322.86 176.95C322.78 176.87 322.73 176.77 322.73 176.65V162.19C322.73 162.07 322.77 161.97 322.86 161.89C322.94 161.81 323.04 161.76 323.17 161.76H337.99C338.11 161.76 338.21 161.8 338.3 161.89C338.38 161.97 338.43 162.07 338.43 162.19V165.67C338.43 165.79 338.39 165.89 338.3 165.97C338.22 166.05 338.11 166.1 337.99 166.1H327.98C327.86 166.1 327.8 166.16 327.8 166.28L327.76 171.59C327.76 171.76 327.83 171.79 327.98 171.7C329.06 171.01 330.3 170.66 331.71 170.66C333.38 170.66 334.85 171.08 336.11 171.93C337.37 172.78 338.26 173.95 338.78 175.43C339.14 176.6 339.32 177.74 339.32 178.84C339.32 180.06 339.13 181.16 338.75 182.14H338.73ZM361.69 167.82C361.69 168.04 361.56 168.17 361.3 168.21L357.1 168.75H357.03C356.81 168.75 356.67 168.62 356.6 168.35C356.46 167.56 356.1 166.94 355.54 166.48C354.98 166.03 354.27 165.8 353.41 165.8C352.43 165.8 351.64 166.12 351.04 166.77C350.44 167.42 350.14 168.25 350.14 169.28V170.72C350.14 170.84 350.2 170.9 350.32 170.9H357.46C357.6 170.9 357.71 170.95 357.78 171.04C357.85 171.14 357.86 171.26 357.82 171.4L357.28 173.19C357.21 173.43 357.05 173.55 356.81 173.55H350.32C350.2 173.55 350.14 173.61 350.14 173.73V174.84C350.14 174.96 350.2 175.02 350.32 175.02H356.24C356.38 175.02 356.49 175.07 356.56 175.16C356.63 175.25 356.64 175.38 356.6 175.52L356.06 177.31C355.99 177.55 355.83 177.67 355.59 177.67H350.32C350.2 177.67 350.14 177.73 350.14 177.85V179.36C350.14 180.39 350.44 181.22 351.04 181.85C351.64 182.48 352.43 182.8 353.41 182.8C354.27 182.8 354.99 182.56 355.56 182.07C356.13 181.58 356.49 180.93 356.64 180.11C356.71 179.82 356.88 179.7 357.14 179.75L361.27 180.5C361.41 180.52 361.51 180.58 361.58 180.66C361.64 180.74 361.66 180.86 361.63 181C361.32 182.89 360.43 184.38 358.97 185.48C357.51 186.58 355.66 187.13 353.41 187.13C351.76 187.13 350.31 186.8 349.05 186.14C347.79 185.48 346.82 184.55 346.13 183.34C345.44 182.13 345.09 180.73 345.09 179.12V177.83C345.09 177.71 345.03 177.65 344.91 177.65H342.61C342.49 177.65 342.39 177.61 342.3 177.52C342.22 177.44 342.17 177.34 342.17 177.21V175.42C342.17 175.3 342.21 175.2 342.3 175.12C342.38 175.04 342.48 174.99 342.61 174.99H344.91C345.03 174.99 345.09 174.93 345.09 174.81V173.7C345.09 173.58 345.03 173.52 344.91 173.52H342.61C342.49 173.52 342.39 173.48 342.3 173.39C342.22 173.31 342.17 173.21 342.17 173.09V171.3C342.17 171.18 342.21 171.08 342.3 171C342.38 170.92 342.48 170.87 342.61 170.87H344.91C345.03 170.87 345.09 170.81 345.09 170.69V169.4C345.09 167.8 345.43 166.39 346.11 165.18C346.79 163.97 347.76 163.05 349.02 162.4C350.28 161.75 351.74 161.43 353.42 161.43C355.69 161.43 357.57 161.99 359.05 163.12C360.53 164.24 361.42 165.77 361.71 167.71V167.78L361.69 167.82Z" fill="#C8AE7D"/>
<path d="M336.1 171.93C334.84 171.08 333.38 170.66 331.7 170.66C330.29 170.66 329.04 171.01 327.97 171.7C327.83 171.8 327.75 171.76 327.75 171.59L327.79 166.28C327.79 166.16 327.85 166.1 327.97 166.1H337.98C338.1 166.1 338.2 166.06 338.29 165.97C338.37 165.89 338.42 165.79 338.42 165.67V162.19C338.42 162.07 338.38 161.97 338.29 161.89C338.21 161.81 338.1 161.76 337.98 161.76H323.16C323.04 161.76 322.94 161.8 322.85 161.89C322.77 161.97 322.72 162.07 322.72 162.19V176.65C322.72 176.77 322.76 176.87 322.85 176.95C322.93 177.03 323.03 177.08 323.16 177.08H327.57C327.81 177.08 327.96 176.96 328.04 176.72C328.23 176.22 328.61 175.81 329.19 175.5C329.76 175.19 330.39 175.03 331.06 175.03C331.73 175.03 332.32 175.2 332.82 175.53C333.32 175.86 333.66 176.34 333.82 176.96C334.04 177.51 334.14 178.13 334.14 178.83C334.14 179.6 334.02 180.22 333.78 180.7C333.54 181.35 333.17 181.85 332.67 182.21C332.17 182.57 331.58 182.75 330.91 182.75C330.24 182.75 329.7 182.58 329.22 182.25C328.74 181.92 328.38 181.44 328.14 180.82C328.12 180.75 328.08 180.66 328.03 180.57C327.98 180.47 327.95 180.35 327.92 180.21C327.85 179.95 327.69 179.82 327.45 179.82H323.11C322.82 179.82 322.68 179.95 322.68 180.21V180.28C322.8 180.97 322.98 181.63 323.22 182.25C323.79 183.76 324.77 184.95 326.14 185.82C327.52 186.69 329.11 187.13 330.93 187.13C332.75 187.13 334.42 186.68 335.81 185.78C337.2 184.88 338.17 183.67 338.72 182.14C339.1 181.16 339.29 180.06 339.29 178.84C339.29 177.74 339.11 176.6 338.75 175.43C338.22 173.95 337.33 172.78 336.08 171.93H336.1Z" fill="white"/>
<path d="M359.04 163.16C357.56 162.04 355.68 161.47 353.41 161.47C351.74 161.47 350.27 161.79 349.01 162.44C347.75 163.09 346.79 164.01 346.1 165.22C345.42 166.43 345.08 167.83 345.08 169.44V170.73C345.08 170.85 345.02 170.91 344.9 170.91H342.6C342.48 170.91 342.38 170.95 342.29 171.04C342.21 171.12 342.16 171.23 342.16 171.34V173.13C342.16 173.25 342.2 173.35 342.29 173.43C342.37 173.51 342.47 173.56 342.6 173.56H344.9C345.02 173.56 345.08 173.62 345.08 173.74V174.85C345.08 174.97 345.02 175.03 344.9 175.03H342.6C342.48 175.03 342.38 175.07 342.29 175.16C342.21 175.24 342.16 175.34 342.16 175.46V177.25C342.16 177.37 342.2 177.47 342.29 177.56C342.37 177.64 342.47 177.69 342.6 177.69H344.9C345.02 177.69 345.08 177.75 345.08 177.87V179.16C345.08 180.76 345.43 182.17 346.12 183.38C346.81 184.59 347.79 185.52 349.04 186.18C350.3 186.84 351.75 187.17 353.4 187.17C355.65 187.17 357.5 186.62 358.96 185.52C360.42 184.42 361.3 182.92 361.62 181.04C361.64 180.9 361.62 180.78 361.57 180.7C361.51 180.62 361.41 180.56 361.26 180.54L357.13 179.79C356.87 179.74 356.7 179.86 356.63 180.15C356.49 180.96 356.13 181.62 355.55 182.11C354.97 182.6 354.26 182.84 353.4 182.84C352.42 182.84 351.63 182.52 351.03 181.89C350.43 181.26 350.13 180.42 350.13 179.4V177.89C350.13 177.77 350.19 177.71 350.31 177.71H355.58C355.82 177.71 355.97 177.59 356.05 177.35L356.59 175.56C356.64 175.42 356.63 175.3 356.55 175.2C356.47 175.1 356.37 175.06 356.23 175.06H350.31C350.19 175.06 350.13 175 350.13 174.88V173.77C350.13 173.65 350.19 173.59 350.31 173.59H356.8C357.04 173.59 357.19 173.47 357.27 173.23L357.81 171.44C357.86 171.3 357.85 171.18 357.77 171.08C357.7 170.98 357.59 170.94 357.45 170.94H350.31C350.19 170.94 350.13 170.88 350.13 170.76V169.32C350.13 168.29 350.43 167.45 351.03 166.81C351.63 166.16 352.42 165.84 353.4 165.84C354.26 165.84 354.97 166.07 355.53 166.52C356.09 166.97 356.44 167.6 356.59 168.39C356.66 168.65 356.81 168.79 357.02 168.79H357.09L361.29 168.25C361.55 168.2 361.68 168.07 361.68 167.86V167.79C361.39 165.85 360.51 164.32 359.02 163.2L359.04 163.16Z" fill="white"/>
<path d="M378.22 139.02H289.56C285.11 139.02 281.48 142.64 281.48 147.1V166.92L283.23 166.84C283.29 166.84 283.35 166.84 283.41 166.84C283.58 166.84 283.74 166.85 283.9 166.86C287.8 167.12 290.9 170.36 290.9 174.32C290.9 178.28 287.54 181.81 283.41 181.81C283.35 181.81 283.29 181.81 283.23 181.81L281.48 181.73V201.55C281.48 202.06 281.53 202.55 281.62 203.03C282.32 206.77 285.61 209.62 289.55 209.62H378.21C382.66 209.62 386.28 206 386.28 201.55V147.11C386.28 142.66 382.66 139.03 378.21 139.03L378.22 139.02ZM383.3 201.53C383.3 204.33 381.02 206.6 378.23 206.6H303.22C303.24 206.5 303.25 206.4 303.25 206.29V199.29C303.25 198.46 302.58 197.79 301.75 197.79C300.92 197.79 300.25 198.46 300.25 199.29V206.29C300.25 206.4 300.26 206.5 300.28 206.6H289.57C287.29 206.6 285.38 205.08 284.74 203.01C284.59 202.54 284.49 202.05 284.49 201.53V184.75C289.77 184.21 293.91 179.74 293.91 174.31C293.91 168.88 289.77 164.41 284.49 163.87V147.09C284.49 144.29 286.77 142.01 289.57 142.01H300.28C300.26 142.11 300.25 142.21 300.25 142.32V149.32C300.25 150.15 300.92 150.82 301.75 150.82C302.58 150.82 303.25 150.15 303.25 149.32V142.32C303.25 142.21 303.24 142.11 303.22 142.01H378.23C381.03 142.01 383.3 144.29 383.3 147.09V201.53Z" fill="white"/>
<path d="M301.75 177.5C300.92 177.5 300.25 178.17 300.25 179V189.93C300.25 190.76 300.92 191.43 301.75 191.43C302.58 191.43 303.25 190.76 303.25 189.93V179C303.25 178.17 302.58 177.5 301.75 177.5Z" fill="white"/>
<path d="M301.75 157.2C300.92 157.2 300.25 157.87 300.25 158.7V169.63C300.25 170.46 300.92 171.13 301.75 171.13C302.58 171.13 303.25 170.46 303.25 169.63V158.7C303.25 157.87 302.58 157.2 301.75 157.2Z" fill="white"/>
<path d="M400.93 121.35H395.5C394.67 121.35 394 122.02 394 122.85C394 123.68 394.67 124.35 395.5 124.35H400.93C401.76 124.35 402.43 123.68 402.43 122.85C402.43 122.02 401.76 121.35 400.93 121.35Z" fill="white"/>
<path d="M390.07 110.5C389.24 110.5 388.57 111.17 388.57 112V117.43C388.57 118.26 389.24 118.93 390.07 118.93C390.9 118.93 391.57 118.26 391.57 117.43V112C391.57 111.17 390.9 110.5 390.07 110.5Z" fill="white"/>
<path d="M390.07 126.78C389.24 126.78 388.57 127.45 388.57 128.28V133.71C388.57 134.54 389.24 135.21 390.07 135.21C390.9 135.21 391.57 134.54 391.57 133.71V128.28C391.57 127.45 390.9 126.78 390.07 126.78Z" fill="white"/>
<path d="M384.65 124.35C385.48 124.35 386.15 123.68 386.15 122.85C386.15 122.02 385.48 121.35 384.65 121.35H379.22C378.39 121.35 377.72 122.02 377.72 122.85C377.72 123.68 378.39 124.35 379.22 124.35H384.65Z" fill="white"/>
<path d="M251.01 154.66H216.12C215.83 154.66 215.59 154.76 215.39 154.96C215.19 155.16 215.09 155.41 215.09 155.69V164.07C215.09 164.36 215.19 164.6 215.39 164.8C215.59 165 215.84 165.1 216.12 165.1H251.01C251.3 165.1 251.54 165 251.74 164.8C251.94 164.6 252.04 164.35 252.04 164.07V155.69C252.04 155.4 251.94 155.16 251.74 154.96C251.54 154.76 251.29 154.66 251.01 154.66Z" fill="#C8AE7D"/>
<path d="M251.01 171.24H216.12C215.83 171.24 215.59 171.34 215.39 171.54C215.19 171.74 215.09 171.99 215.09 172.27V180.65C215.09 180.94 215.19 181.18 215.39 181.38C215.59 181.58 215.84 181.68 216.12 181.68H251.01C251.3 181.68 251.54 181.58 251.74 181.38C251.94 181.18 252.04 180.93 252.04 180.65V172.27C252.04 171.98 251.94 171.74 251.74 171.54C251.54 171.34 251.29 171.24 251.01 171.24Z" fill="#C8AE7D"/>
<path d="M456.36 75.8H14.19V78.8H456.36V75.8Z" fill="white"/>
<path d="M143.27 59.95L146.15 59.29C146.37 59.29 146.47 59.16 146.48 58.89L146.51 44.42C146.51 44.42 146.53 44.32 146.58 44.21L149.43 39.94C149.43 39.94 149.49 39.89 149.53 39.88C149.58 39.88 149.61 39.89 149.63 39.95L158.35 55.88C158.48 56.05 158.64 56.13 158.82 56.13L161.84 55.51C162.06 55.51 162.18 55.41 162.18 55.23C162.18 55.17 162.15 55.08 162.1 54.96L151.98 36.67C151.96 36.59 151.96 36.51 151.98 36.41L161.43 21.6C161.54 21.41 161.35 21.06 161.18 21.11L158.77 20.6C158.56 20.66 158.4 20.8 158.29 21.01L146.68 38.94C146.66 39 146.62 39.02 146.58 39.02C146.54 39.02 146.51 38.99 146.51 38.93L146.56 18.09C146.56 17.88 146.38 17.83 146.23 17.8L143.26 17.21C143.05 17.29 142.96 17.39 142.96 17.66V59.58C142.96 59.84 143.06 59.96 143.27 59.96V59.95Z" fill="white"/>
<path d="M169.64 53.63C171.13 54.33 172.81 54.55 174.67 54.3C176.46 54.06 177.99 53.43 179.28 52.44C180.53 51.48 181.47 50.23 182.12 48.71C182.76 47.21 183.07 45.55 183.06 43.71L182.95 25.32C182.95 25.07 182.85 24.92 182.64 24.89L179.85 24.37C179.64 24.34 179.53 24.45 179.53 24.71L179.55 43.76C179.55 45.58 179.09 47.08 178.16 48.29C177.21 49.53 176.33 50.39 174.69 50.56C173 50.73 171.59 50.26 170.51 49.12C169.41 47.97 168.86 46.37 168.89 44.35L169.23 23.25C169.23 22.96 169.1 22.8 168.84 22.75L165.72 22.27C165.44 22.23 165.29 22.35 165.29 22.65L164.8 44.41C164.75 46.6 165.16 48.52 166.04 50.14C166.9 51.75 168.11 52.91 169.63 53.63H169.64Z" fill="white"/>
<path d="M191.56 51.01C192.91 51.59 194.51 51.88 196.36 51.88C199.07 51.88 201.19 51.26 202.74 50.01C204.28 48.76 205.06 47.07 205.06 44.94C205.06 43.56 204.71 42.4 204.02 41.47C203.32 40.54 202.45 39.78 201.4 39.21C200.35 38.64 198.97 38.02 197.27 37.34C195.62 36.71 194.39 36.19 193.59 35.79C192.79 35.39 192.18 34.94 191.78 34.43C191.37 33.92 191.17 33.27 191.17 32.47C191.17 31.31 191.58 30.41 192.39 29.8C193.2 29.18 194.35 28.87 195.84 28.87C197.59 28.87 198.96 29.29 199.95 30.12C200.94 30.96 201.44 32.01 201.44 33.27V33.82C201.44 34.06 201.56 34.18 201.8 34.18H204.49C204.73 34.18 204.85 34.06 204.85 33.82V33.09C204.85 31.66 204.48 30.4 203.75 29.31C203.02 28.22 201.98 27.37 200.64 26.76C199.3 26.15 197.74 25.85 195.97 25.85C193.46 25.85 191.46 26.44 189.99 27.63C188.52 28.82 187.78 30.46 187.78 32.54C187.78 33.92 188.11 35.07 188.79 35.98C189.46 36.89 190.3 37.62 191.32 38.18C192.34 38.74 193.72 39.36 195.47 40.04C197.05 40.67 198.25 41.21 199.08 41.66C199.91 42.11 200.54 42.6 200.97 43.13C201.4 43.66 201.62 44.31 201.62 45.06C201.62 46.2 201.2 47.12 200.36 47.82C199.52 48.52 198.28 48.88 196.62 48.88C194.78 48.88 193.33 48.48 192.27 47.68C191.22 46.88 190.69 45.86 190.69 44.62V43.75C190.69 43.51 190.57 43.39 190.33 43.39H187.71C187.47 43.39 187.35 43.51 187.35 43.75V44.81C187.35 46.24 187.71 47.49 188.45 48.56C189.18 49.63 190.22 50.45 191.58 51.03L191.56 51.01Z" fill="white"/>
<path d="M210.08 50.18L212.81 50.06C213.05 50.06 213.17 49.93 213.17 49.66V33.27C213.17 33.19 213.19 33.14 213.24 33.11C213.29 33.08 213.32 33.11 213.35 33.19L218.52 41.73C218.64 41.89 218.78 41.97 218.95 41.97H220.32C220.51 41.97 220.65 41.89 220.75 41.73L225.89 33.11C225.91 33.03 225.95 33.01 226 33.03C226.05 33.06 226.07 33.11 226.07 33.19V49.32C226.07 49.58 226.19 49.72 226.43 49.72H229.16C229.4 49.72 229.52 49.59 229.52 49.32V27.89C229.52 27.63 229.4 27.49 229.16 27.49H226.43C226.26 27.49 226.12 27.57 226 27.73L219.75 36.75C219.75 36.75 219.69 36.79 219.64 36.79C219.59 36.79 219.55 36.78 219.53 36.75L213.24 27.42C213.14 27.26 213 27.18 212.81 27.18L210.08 27.03C209.84 27.03 209.72 27.16 209.72 27.43V49.79C209.72 50.05 209.84 50.19 210.08 50.19V50.18Z" fill="white"/>
<path d="M235.76 49.82L238.96 49.86C239.2 49.86 239.32 49.73 239.32 49.46V27.77C239.32 27.51 239.2 27.37 238.96 27.37L235.76 27.47C235.52 27.47 235.4 27.6 235.4 27.87V49.42C235.4 49.68 235.52 49.82 235.76 49.82Z" fill="white"/>
<path d="M245.18 49.99L247.68 50.13C247.9 50.14 248.01 50.04 248.01 49.83L247.9 42.44C247.9 42.44 247.92 42.36 247.97 42.28L250.84 39.21C250.84 39.21 250.9 39.18 250.94 39.18C250.99 39.18 251.02 39.2 251.05 39.24L258.95 50.48C259.08 50.63 259.23 50.7 259.41 50.71L262.79 50.88C263 50.89 263.11 50.83 263.11 50.69C263.11 50.64 263.08 50.57 263.03 50.47L253.38 36.95C253.36 36.88 253.36 36.82 253.38 36.75L262.14 26.98C262.24 26.86 262.27 26.75 262.22 26.67C262.17 26.59 262.06 26.56 261.9 26.57L258.52 26.85C258.32 26.87 258.16 26.95 258.06 27.09L248.06 38.07C248.06 38.07 248 38.13 247.96 38.12C247.91 38.12 247.89 38.08 247.89 38.04V27.52C247.89 27.3 247.78 27.21 247.56 27.22L245.06 27.2C244.84 27.22 244.74 27.33 244.74 27.54L244.85 49.64C244.85 49.85 244.96 49.96 245.17 49.98L245.18 49.99Z" fill="#E4CB9A"/>
<path d="M267.23 50.88L282.86 52.76C283.1 52.76 283.22 52.63 283.22 52.36V49.41C283.22 49.15 283.1 49.01 282.86 49.01L270.94 47.6C270.84 47.6 270.8 47.55 270.8 47.44V26.36C270.8 26.1 270.68 25.96 270.44 25.96L267.24 26.16C267 26.16 266.88 26.29 266.88 26.56V50.49C266.88 50.75 267 50.89 267.24 50.89L267.23 50.88Z" fill="#E4CB9A"/>
<path d="M290.78 53.06C292 54.07 293.46 54.72 295.16 54.99C296.93 55.28 298.53 55.09 299.96 54.42C301.43 53.73 302.6 52.59 303.44 50.99C304.3 49.37 304.73 47.42 304.73 45.19V22.09C304.73 21.76 304.59 21.62 304.3 21.66L301.16 22.16C300.89 22.2 300.76 22.38 300.76 22.7V45.05C300.76 47.11 300.22 48.73 299.15 49.87C298.11 51 296.76 51.45 295.14 51.25C293.57 51.06 292.81 50.32 291.89 49.05C290.98 47.81 290.54 46.27 290.54 44.42V24.34C290.54 24.05 290.43 23.93 290.22 23.96L287.39 24.34C287.19 24.37 287.09 24.53 287.09 24.8V44.16C287.09 46.04 287.4 47.73 288.03 49.25C288.67 50.79 289.58 52.06 290.77 53.04L290.78 53.06Z" fill="#E4CB9A"/>
<path d="M310.68 56.11L318.84 57.94C321.27 58.49 323.34 57.97 325 56.33C326.72 54.63 327.6 51.87 327.6 48.1C327.6 43.1 326.08 39.66 323.17 37.86C323.04 37.74 323.04 37.63 323.17 37.51C325.82 35.84 327.21 32.76 327.21 28.35C327.21 24.64 326.38 21.96 324.78 20.35C323.22 18.79 321.13 18.34 318.56 18.91L310.69 20.68C310.49 20.72 310.39 20.91 310.39 21.25V55.53C310.39 55.87 310.49 56.06 310.69 56.1L310.68 56.11ZM313.31 24.65C313.31 24.51 313.35 24.43 313.44 24.42L318.54 23.55C319.95 23.31 321.1 23.69 321.96 24.7C322.83 25.73 323.28 27.26 323.28 29.25C323.28 31.24 322.84 32.78 321.96 33.95C321.1 35.1 319.95 35.69 318.54 35.73L313.44 35.89C313.36 35.89 313.31 35.82 313.31 35.68V24.65ZM313.31 40.29C313.31 40.15 313.35 40.08 313.44 40.08L318.72 40.19C320.16 40.22 321.33 40.85 322.21 42.09C323.1 43.36 323.56 45.06 323.56 47.18C323.56 49.3 323.11 50.92 322.23 52.01C321.37 53.09 320.23 53.5 318.83 53.26L313.44 52.34C313.36 52.33 313.31 52.25 313.31 52.11V40.29Z" fill="#E4CB9A"/>
</svg>
