<svg width="82" height="64" viewBox="0 0 82 64" fill="none" xmlns="http://www.w3.org/2000/svg">
<path d="M9.48917 18.3547H65.0979C64.419 16.9258 62.9664 15.939 61.277 15.939H4.23144C1.89468 15.939 0 17.8336 0 20.1704V31.9174C0.0947338 31.9174 0.181573 31.9016 0.276307 31.9016C1.88678 31.9016 3.34726 32.5647 4.39723 33.6305V23.4466C4.39723 20.6441 6.67873 18.3547 9.48917 18.3547Z" fill="#C8AE7D"/>
<path d="M4.39723 45.8275L5.40772 45.8749C5.44719 45.8749 5.48666 45.8749 5.53403 45.8749C8.24973 45.8749 10.4602 43.6644 10.4602 40.9487C10.4602 38.233 8.40762 36.1883 5.82613 36.0383C5.97612 36.5594 6.06296 37.1041 6.06296 37.6725C6.06296 40.8698 3.47357 43.4591 0.276307 43.4591C0.181573 43.4591 0.0947338 43.4512 0 43.4434V55.1903C0 57.535 1.89468 59.4297 4.23144 59.4297H4.49196C4.4367 59.1218 4.39723 58.7981 4.39723 58.4744V45.8275Z" fill="#C8AE7D"/>
<path d="M16.4679 57.6771C16.4679 57.2034 16.8547 56.8166 17.3284 56.8166C17.8021 56.8166 18.1889 57.2034 18.1889 57.6771V59.4297H61.2849C63.6216 59.4297 65.5163 57.535 65.5163 55.1982V20.1704C65.5163 20.1704 65.5163 20.1073 65.5163 20.0757H18.1652C18.1731 20.1309 18.181 20.1862 18.181 20.2415V24.2519C18.181 24.7255 17.7942 25.1124 17.3205 25.1124C16.8468 25.1124 16.46 24.7255 16.46 24.2519V20.2415C16.46 20.1862 16.46 20.1309 16.4758 20.0757H9.4813C7.6182 20.0757 6.11035 21.5914 6.11035 23.4466V34.341C9.50498 34.6331 12.1733 37.4909 12.1733 40.9566C12.1733 44.4223 9.50498 47.2801 6.11035 47.5722V58.4665C6.11035 58.7981 6.15772 59.1218 6.25245 59.4218H16.46V57.6692L16.4679 57.6771ZM43.9091 41.6987C43.9091 41.6197 43.9328 41.5566 43.9881 41.5013C44.0433 41.446 44.1065 41.4224 44.1854 41.4224H45.6617C45.7406 41.4224 45.7801 41.3829 45.7801 41.3039V40.5855C45.7801 40.5066 45.7406 40.4671 45.6617 40.4671H44.1854C44.1065 40.4671 44.0433 40.4434 43.9881 40.3882C43.9328 40.3329 43.9091 40.2698 43.9091 40.1908V39.0382C43.9091 38.9593 43.9328 38.8961 43.9881 38.8409C44.0433 38.7856 44.1065 38.7619 44.1854 38.7619H45.6617C45.7406 38.7619 45.7801 38.7224 45.7801 38.6435V37.8146C45.7801 36.7804 46.0012 35.8804 46.4354 35.0989C46.8774 34.3252 47.5011 33.7252 48.3063 33.3068C49.1116 32.8884 50.0589 32.6832 51.1326 32.6832C52.593 32.6832 53.8009 33.0463 54.7561 33.7647C55.7114 34.491 56.2798 35.4699 56.4613 36.7173V36.7646C56.4613 36.9067 56.3745 36.9857 56.2087 37.0172L53.5088 37.3646H53.4614C53.3193 37.3646 53.2325 37.2778 53.1851 37.112C53.0904 36.6067 52.8694 36.2041 52.5062 35.912C52.1431 35.6199 51.6852 35.4699 51.1326 35.4699C50.501 35.4699 49.9958 35.6752 49.6089 36.0936C49.2221 36.512 49.0326 37.0488 49.0326 37.712V38.6356C49.0326 38.7146 49.0721 38.754 49.151 38.754H53.7456C53.8404 38.754 53.9035 38.7856 53.9509 38.8488C53.9983 38.9119 54.0062 38.9909 53.9746 39.0777L53.6272 40.2303C53.5799 40.3882 53.4772 40.4592 53.3272 40.4592H49.151C49.0721 40.4592 49.0326 40.4987 49.0326 40.5777V41.296C49.0326 41.375 49.0721 41.4145 49.151 41.4145H52.9562C53.0509 41.4145 53.1141 41.446 53.1614 41.5092C53.2088 41.5724 53.2167 41.6513 53.1851 41.7381L52.8378 42.8907C52.7904 43.0486 52.6878 43.1197 52.5378 43.1197H49.1432C49.0642 43.1197 49.0247 43.1591 49.0247 43.2381V44.2091C49.0247 44.8722 49.2142 45.4091 49.601 45.8117C49.9879 46.2222 50.4931 46.4196 51.1247 46.4196C51.6773 46.4196 52.1431 46.2617 52.5062 45.9459C52.8772 45.6301 53.1062 45.2117 53.2009 44.6907C53.2483 44.5091 53.3509 44.4302 53.5246 44.4617L56.1771 44.9433C56.2719 44.9591 56.335 44.9907 56.3745 45.0459C56.414 45.1012 56.4219 45.1722 56.4061 45.267C56.2087 46.4827 55.6324 47.4458 54.7009 48.1564C53.7614 48.8669 52.5694 49.2142 51.1247 49.2142C50.0589 49.2142 49.1274 49.0011 48.3221 48.5827C47.5169 48.1564 46.8853 47.5564 46.4432 46.7827C45.9933 46.0091 45.7722 45.1012 45.7722 44.067V43.2381C45.7722 43.1591 45.7327 43.1197 45.6538 43.1197H44.1775C44.0986 43.1197 44.0354 43.096 43.9802 43.0407C43.9249 42.9855 43.9012 42.9223 43.9012 42.8434V41.6908L43.9091 41.6987ZM30.8043 44.7459C30.8043 44.5802 30.899 44.4933 31.0806 44.4933H33.8752C34.0252 44.4933 34.1279 44.5802 34.1752 44.7459C34.191 44.8407 34.2147 44.9117 34.2463 44.9749C34.2779 45.038 34.3015 45.0933 34.3173 45.1407C34.4752 45.5433 34.7042 45.8512 35.012 46.0643C35.3199 46.2775 35.6831 46.388 36.0936 46.388C36.5041 46.388 36.8988 46.2696 37.2225 46.0406C37.5462 45.8117 37.783 45.488 37.9409 45.0696C38.0909 44.7617 38.1698 44.3591 38.1698 43.8696C38.1698 43.4197 38.0988 43.0249 37.9646 42.6697C37.854 42.2671 37.6409 41.9592 37.3172 41.746C36.9936 41.5329 36.6146 41.4224 36.1883 41.4224C35.762 41.4224 35.3594 41.525 34.9884 41.7224C34.6173 41.9197 34.3726 42.1802 34.2463 42.5039C34.1989 42.6618 34.0963 42.7328 33.9463 42.7328H31.1043C31.0253 42.7328 30.9622 42.7092 30.9069 42.6539C30.8517 42.5986 30.828 42.5355 30.828 42.4565V33.1489C30.828 33.07 30.8517 33.0068 30.9069 32.9516C30.9622 32.8963 31.0253 32.8726 31.1043 32.8726H40.6408C40.7197 32.8726 40.7829 32.8963 40.8382 32.9516C40.8934 33.0068 40.9171 33.07 40.9171 33.1489V35.391C40.9171 35.4699 40.8934 35.5331 40.8382 35.5883C40.7829 35.6436 40.7197 35.6673 40.6408 35.6673H34.1989C34.12 35.6673 34.0805 35.7068 34.0805 35.7857L34.0568 39.204C34.0568 39.3145 34.1042 39.3382 34.1989 39.2751C34.8936 38.8251 35.691 38.604 36.5988 38.604C37.6725 38.604 38.6198 38.8803 39.4251 39.4251C40.2303 39.9698 40.8066 40.7198 41.146 41.675C41.375 42.4329 41.4934 43.1591 41.4934 43.8696C41.4934 44.6512 41.3671 45.3617 41.1224 45.9933C40.7671 46.9801 40.1435 47.7616 39.2514 48.3379C38.3593 48.9142 37.3093 49.2063 36.1094 49.2063C34.9094 49.2063 33.9147 48.9221 33.0305 48.3616C32.1463 47.8011 31.5148 47.0353 31.1516 46.0643C30.9937 45.6617 30.8832 45.2433 30.8043 44.7933V44.7459ZM16.4679 30.5122C16.4679 30.0385 16.8547 29.6517 17.3284 29.6517C17.8021 29.6517 18.1889 30.0385 18.1889 30.5122V37.8225C18.1889 38.2961 17.8021 38.683 17.3284 38.683C16.8547 38.683 16.4679 38.2961 16.4679 37.8225V30.5122ZM16.4679 44.0907C16.4679 43.617 16.8547 43.2302 17.3284 43.2302C17.8021 43.2302 18.1889 43.617 18.1889 44.0907V51.401C18.1889 51.8747 17.8021 52.2615 17.3284 52.2615C16.8547 52.2615 16.4679 51.8747 16.4679 51.401V44.0907Z" fill="#C8AE7D"/>
<path d="M66.5345 18.3547H9.48902C6.68648 18.3547 4.39708 20.6362 4.39708 23.4467V36.0936L5.40758 36.0463C5.44705 36.0463 5.48652 36.0463 5.53389 36.0463C5.62862 36.0463 5.72336 36.0542 5.82598 36.0621C8.40748 36.2121 10.46 38.3515 10.46 40.9724C10.46 43.5934 8.24959 45.8986 5.53389 45.8986C5.49442 45.8986 5.44705 45.8986 5.40758 45.8986L4.39708 45.8512V58.4982C4.39708 58.8218 4.42866 59.1455 4.49182 59.4534C4.9418 61.806 7.01016 63.5901 9.48902 63.5901H66.5345C69.3371 63.5901 71.6265 61.3086 71.6265 58.4982V23.4704C71.6265 20.6678 69.345 18.3784 66.5345 18.3784V18.3547ZM69.9055 58.4745C69.9055 60.3376 68.3897 61.8454 66.5345 61.8454H18.1651C18.0861 62.2402 17.7388 62.5401 17.3203 62.5401C16.9019 62.5401 16.5546 62.2402 16.4756 61.8454H9.48113C7.95749 61.8454 6.6628 60.827 6.25229 59.4297C6.16545 59.1297 6.11019 58.8061 6.11019 58.4745V47.5801C9.50481 47.288 12.1731 44.4302 12.1731 40.9645C12.1731 37.4989 9.50481 34.6411 6.11019 34.349V23.4546C6.11019 21.5915 7.62593 20.0836 9.48113 20.0836H16.4756C16.5546 19.6889 16.9019 19.3889 17.3203 19.3889C17.7388 19.3889 18.0861 19.6889 18.1651 20.0836H66.5345C68.3897 20.0836 69.9055 21.5994 69.9055 23.4546V58.4824V58.4745Z" fill="#4A4A4A"/>
<path d="M16.4678 24.2439C16.4678 24.7176 16.8546 25.1044 17.3282 25.1044C17.8019 25.1044 18.1887 24.7176 18.1887 24.2439V20.2335C18.1887 20.1783 18.1887 20.123 18.173 20.0678C18.094 19.673 17.7467 19.373 17.3282 19.373C16.9098 19.373 16.5625 19.673 16.4835 20.0678C16.4756 20.123 16.4678 20.1783 16.4678 20.2335V24.2439Z" fill="#4A4A4A"/>
<path d="M17.3205 38.6829C17.7942 38.6829 18.181 38.2961 18.181 37.8224V30.5121C18.181 30.0384 17.7942 29.6516 17.3205 29.6516C16.8469 29.6516 16.46 30.0384 16.46 30.5121V37.8224C16.46 38.2961 16.8469 38.6829 17.3205 38.6829Z" fill="#4A4A4A"/>
<path d="M17.3205 52.2615C17.7942 52.2615 18.181 51.8747 18.181 51.401V44.0907C18.181 43.6171 17.7942 43.2302 17.3205 43.2302C16.8469 43.2302 16.46 43.6171 16.46 44.0907V51.401C16.46 51.8747 16.8469 52.2615 17.3205 52.2615Z" fill="#4A4A4A"/>
<path d="M18.181 59.4297V57.6772C18.181 57.2035 17.7942 56.8167 17.3205 56.8167C16.8469 56.8167 16.46 57.2035 16.46 57.6772V61.6875C16.46 61.7428 16.46 61.7981 16.4758 61.8533C16.5548 62.2481 16.9021 62.548 17.3205 62.548C17.7389 62.548 18.0863 62.2481 18.1652 61.8533C18.1731 61.7981 18.181 61.7428 18.181 61.6875V59.4376V59.4297Z" fill="#4A4A4A"/>
<path d="M81.1395 6.98657H77.6501C77.1764 6.98657 76.7896 7.3734 76.7896 7.84707C76.7896 8.32074 77.1764 8.70757 77.6501 8.70757H81.1395C81.6131 8.70757 82 8.32074 82 7.84707C82 7.3734 81.6131 6.98657 81.1395 6.98657Z" fill="#4A4A4A"/>
<path d="M74.1609 0C73.6872 0 73.3004 0.38683 73.3004 0.860498V4.34986C73.3004 4.82353 73.6872 5.21036 74.1609 5.21036C74.6345 5.21036 75.0214 4.82353 75.0214 4.34986V0.860498C75.0214 0.38683 74.6345 0 74.1609 0Z" fill="#4A4A4A"/>
<path d="M74.1609 10.4761C73.6872 10.4761 73.3004 10.8629 73.3004 11.3366V14.8259C73.3004 15.2996 73.6872 15.6864 74.1609 15.6864C74.6345 15.6864 75.0214 15.2996 75.0214 14.8259V11.3366C75.0214 10.8629 74.6345 10.4761 74.1609 10.4761Z" fill="#4A4A4A"/>
<path d="M67.1741 8.70757H70.6635C71.1372 8.70757 71.524 8.32074 71.524 7.84707C71.524 7.3734 71.1372 6.98657 70.6635 6.98657H67.1741C66.7005 6.98657 66.3137 7.3734 66.3137 7.84707C66.3137 8.32074 66.7005 8.70757 67.1741 8.70757Z" fill="#4A4A4A"/>
</svg>
