<svg width="62" height="71" viewBox="0 0 62 71" fill="none" xmlns="http://www.w3.org/2000/svg">
<path d="M59.6586 14.6106H39.6303C43.1986 13.0475 45.4564 10.5292 45.4564 7.66347C45.4564 5.67406 43.7354 3.84254 41.3592 3.30571C38.5014 2.65837 34.5226 3.92148 31.9253 9.37657C31.72 9.80287 31.9016 10.316 32.3358 10.5213C32.7621 10.7265 33.2752 10.545 33.4805 10.1108C36.2041 4.38726 39.9066 4.73462 40.9802 4.97145C42.5512 5.3267 43.7354 6.47929 43.7354 7.65557C43.7354 11.2239 38.5645 14.2475 31.9726 14.5396C31.8779 14.5396 31.7832 14.5711 31.6963 14.6027H31.3411C30.9069 12.6291 30.3701 10.8134 29.7306 9.21078C27.4728 3.6057 23.7782 0.250551 19.5862 0.0137166C16.7442 -0.152067 14.0522 1.19789 12.8759 3.36098C12.647 3.77938 12.8048 4.30042 13.2233 4.52146C13.6417 4.7504 14.1627 4.59251 14.3916 4.17411C15.2442 2.60311 17.3442 1.59261 19.4915 1.71892C21.5519 1.83734 25.4123 3.05309 28.1438 9.84234C28.7122 11.2633 29.1938 12.858 29.5885 14.5948H29.4069C29.3201 14.5632 29.2333 14.5396 29.1385 14.5317C22.3414 14.2001 16.5153 11.5397 14.6364 7.92399C14.4153 7.50558 13.9022 7.33979 13.4759 7.55294C13.0575 7.77399 12.8917 8.28713 13.1048 8.71343C14.3995 11.2081 17.1231 13.2607 20.6993 14.5948H1.75257C0.781554 14.5948 0 15.3843 0 16.3474V22.6156C0 23.5787 0.789448 24.3682 1.75257 24.3682H3.74988V66.2484C3.74988 66.7221 4.13671 67.1089 4.61038 67.1089H7.76817C8.005 67.1089 8.21026 67.0142 8.36815 66.8642C8.52604 66.7063 8.62867 66.4931 8.62867 66.2484C8.62867 66.0037 8.52604 65.7905 8.36815 65.6326C8.21026 65.4826 8.005 65.3879 7.76817 65.3879H5.47087V24.3682H26.5491V65.3879H15.3863C14.9127 65.3879 14.5258 65.7747 14.5258 66.2484C14.5258 66.7221 14.9127 67.1089 15.3863 67.1089H55.8771C56.3508 67.1089 56.7376 66.7221 56.7376 66.2484V60.0591C56.7376 59.5855 56.3508 59.1986 55.8771 59.1986C55.4035 59.1986 55.0166 59.5855 55.0166 60.0591V65.3879H34.9962V24.3682H37.9961C38.4698 24.3682 38.8566 23.9814 38.8566 23.5077C38.8566 23.034 38.4698 22.6472 37.9961 22.6472H16.4126L1.72889 22.6077L1.76836 16.3079H53.9272L59.706 16.3474L59.6665 22.6472H43.917C43.6486 22.6472 43.4196 22.7735 43.2618 22.9551C43.1354 23.1051 43.0565 23.2945 43.0565 23.4998C43.0565 23.9735 43.4433 24.3603 43.917 24.3603H55.0166V54.4777C55.0166 54.9514 55.4035 55.3382 55.8771 55.3382C56.3508 55.3382 56.7376 54.9514 56.7376 54.4777V24.3603H59.6744C60.6454 24.3603 61.427 23.5708 61.427 22.6077V16.3395C61.427 15.3764 60.6375 14.5869 59.6744 14.5869L59.6586 14.6106ZM28.2622 24.384H33.2673V65.4037H28.2622V24.384Z" fill="#4A4A4A"/>
<path d="M55.8694 55.362C55.3957 55.362 55.0089 54.9752 55.0089 54.5015V27.905H34.9885V65.3959H55.0089V60.0671C55.0089 59.5935 55.3957 59.2066 55.8694 59.2066C56.3431 59.2066 56.7299 59.5935 56.7299 60.0671V66.2564C56.7299 66.7301 56.3431 67.1169 55.8694 67.1169H15.3786C14.9049 67.1169 14.5181 66.7301 14.5181 66.2564C14.5181 65.7827 14.9049 65.3959 15.3786 65.3959H26.5414V27.905H8.3683V65.6406C8.52619 65.7985 8.62882 66.0117 8.62882 66.2564C8.62882 66.5011 8.52619 66.7143 8.3683 66.8722V68.83C8.3683 69.8326 9.18143 70.6457 10.184 70.6457H57.8035C58.8061 70.6457 59.6193 69.8326 59.6193 68.83V27.9129H56.722V54.5094C56.722 54.9831 56.3352 55.3699 55.8615 55.3699L55.8694 55.362Z" fill="#C8AE7D"/>
</svg>
