<svg width="61" height="79" viewBox="0 0 61 79" fill="none" xmlns="http://www.w3.org/2000/svg">
<path d="M54.3459 73.9949C54.9064 73.4423 55.2221 72.7081 55.2221 71.9187L55.5221 36.4093C55.5221 35.5567 55.2932 34.7278 54.8511 34.0094L46.1356 19.9493L28.7283 19.7993L26.5178 23.2334C27.7651 23.5176 28.9414 23.8492 29.9993 24.2439C33.536 25.5702 35.478 27.4254 35.4623 29.4622C35.4623 29.5727 35.4465 29.6753 35.4386 29.7858C36.2596 29.3911 36.8438 28.5543 36.8517 27.5754C36.8596 26.2175 35.7622 25.0965 34.4044 25.0886C33.9307 25.0886 33.5518 24.6939 33.5518 24.2202C33.5518 23.7466 33.9623 23.3834 34.4202 23.3676C35.5412 23.3755 36.5833 23.8176 37.3648 24.615C38.1464 25.4123 38.5727 26.4702 38.5648 27.5833C38.549 29.8806 36.6701 31.7358 34.3807 31.7358H34.3412C32.865 31.72 31.5308 30.9542 30.7729 29.6832C30.5282 29.2727 30.6703 28.7517 31.0729 28.5069C31.4834 28.2701 32.0045 28.4043 32.2492 28.8069C32.5729 29.3516 33.0702 29.7306 33.6544 29.9121C33.7018 29.7543 33.7334 29.6043 33.7413 29.4464C33.7492 28.2227 32.1229 26.8728 29.3914 25.8465C28.2388 25.4123 26.9362 25.0491 25.531 24.7649L20.8259 32.0752L17.676 36.9698C17.3523 37.4751 17.1707 38.0671 17.1707 38.675L16.8708 74.5318L52.2696 74.8317C53.0591 74.8475 53.7932 74.5396 54.3538 73.987L54.3459 73.9949ZM25.531 48.2037C25.1126 47.4932 24.8994 46.7195 24.8994 45.8827C24.8994 45.0459 25.1047 44.2801 25.531 43.5775C25.9494 42.8749 26.5099 42.3144 27.2283 41.896C27.9388 41.4776 28.7204 41.2644 29.5809 41.2644C30.4414 41.2644 31.1835 41.4776 31.8861 41.896C32.5887 42.3144 33.1492 42.8749 33.5676 43.5775C33.986 44.2801 34.1991 45.0459 34.1991 45.8827C34.1991 46.7195 33.9939 47.4932 33.5834 48.2037C33.1729 48.9142 32.6124 49.4747 31.9018 49.8852C31.1913 50.2957 30.4177 50.501 29.5809 50.501C28.7441 50.501 27.9388 50.2957 27.2283 49.8852C26.5178 49.4747 25.9494 48.9142 25.531 48.2037ZM30.6229 61.9716H28.4362C28.302 61.9716 28.2151 61.9322 28.1757 61.8532C28.1362 61.7743 28.1441 61.6795 28.2072 61.5611L39.2121 41.7618C39.3069 41.6039 39.4569 41.5249 39.6463 41.5249H41.8094C41.9436 41.5249 42.0305 41.5644 42.0699 41.6433C42.1094 41.7223 42.1015 41.817 42.0384 41.9354L31.0571 61.7348C30.9624 61.8927 30.8124 61.9716 30.6229 61.9716ZM44.9751 59.9112C44.5567 60.6217 43.9883 61.1901 43.2778 61.6085C42.5673 62.0269 41.7936 62.24 40.9568 62.24C40.12 62.24 39.3463 62.0269 38.6358 61.6085C37.9253 61.1901 37.3569 60.6296 36.9385 59.9112C36.5201 59.2007 36.307 58.427 36.307 57.5902C36.307 56.7534 36.5122 55.9876 36.9385 55.285C37.3569 54.5824 37.9174 54.0298 38.6358 53.6193C39.3463 53.2088 40.12 53.0035 40.9568 53.0035C41.7936 53.0035 42.5673 53.2088 43.2778 53.6193C43.9883 54.0298 44.5488 54.5824 44.9751 55.285C45.3935 55.9876 45.6067 56.7534 45.6067 57.5902C45.6067 58.427 45.3935 59.2007 44.9751 59.9112Z" fill="#C8AE7D"/>
<path d="M31.1041 47.4617C31.5225 47.0354 31.7356 46.5065 31.7356 45.8828C31.7356 45.2592 31.5225 44.7618 31.1041 44.3355C30.6857 43.9092 30.1725 43.696 29.5725 43.696C28.9726 43.696 28.4199 43.9092 27.9936 44.3355C27.5673 44.7618 27.3542 45.2828 27.3542 45.8828C27.3542 46.4828 27.5673 47.0354 27.9936 47.4617C28.4199 47.888 28.9489 48.1012 29.5725 48.1012C30.1962 48.1012 30.6857 47.888 31.1041 47.4617Z" fill="#C8AE7D"/>
<path d="M60.393 37.341L50.2485 20.9757C49.8617 20.3521 49.1907 19.9731 48.4565 19.9731H48.1644L56.3115 33.1096C56.9273 34.1043 57.251 35.2569 57.2431 36.4331L56.9431 71.9425C56.9352 73.1898 56.4378 74.3503 55.5536 75.2266C54.6774 76.0871 53.5169 76.5608 52.2853 76.5608H52.2458L17.1391 76.2687C17.6996 77.6581 19.0496 78.6449 20.6364 78.6528L56.7457 78.9528C58.8456 78.9686 60.5587 77.2871 60.5745 75.1871L60.8745 39.0541C60.8745 38.4462 60.7166 37.8541 60.393 37.341Z" fill="#C8AE7D"/>
<path d="M40.9645 55.4036C40.3646 55.4036 39.8435 55.6167 39.4172 56.0351C38.9909 56.4535 38.7778 56.9746 38.7778 57.5982C38.7778 58.2219 38.983 58.7508 39.4093 59.1771C39.8277 59.6034 40.3488 59.8166 40.9724 59.8166C41.5961 59.8166 42.0935 59.6034 42.5198 59.1771C42.9461 58.7508 43.1592 58.2219 43.1592 57.5982C43.1592 56.9746 42.9461 56.4772 42.5198 56.0509C42.0935 55.6246 41.5724 55.4115 40.9724 55.4115L40.9645 55.4036Z" fill="#C8AE7D"/>
<path d="M25.6336 10.0971C25.7994 10.2707 26.0205 10.3576 26.2494 10.3576C26.4784 10.3576 26.6836 10.2786 26.8494 10.1129C27.1889 9.78129 27.1889 9.23657 26.8573 8.8971L22.7522 4.72092C22.4206 4.38146 21.8759 4.38146 21.5364 4.71303C21.197 5.0446 21.197 5.58932 21.5285 5.92878L25.6336 10.105V10.0971Z" fill="#4A4A4A"/>
<path d="M34.5464 7.23924C35.0201 7.23924 35.399 6.8603 35.4069 6.38664L35.4543 0.868393C35.4543 0.394724 35.0753 0.00789448 34.6017 0C34.128 0 33.7491 0.378935 33.7412 0.852604L33.6938 6.37085C33.6938 6.84451 34.0728 7.23134 34.5464 7.23924Z" fill="#4A4A4A"/>
<path d="M42.8041 10.4919C43.0251 10.4919 43.2383 10.4129 43.4041 10.2471L47.5802 6.142C47.9197 5.81043 47.9197 5.26571 47.5881 4.92625C47.2566 4.58678 46.7118 4.58678 46.3724 4.91835L42.1962 9.02348C41.8567 9.35505 41.8567 9.89977 42.1883 10.2392C42.3541 10.4129 42.5751 10.4998 42.8041 10.4998V10.4919Z" fill="#4A4A4A"/>
<path d="M33.7333 29.4544C33.7333 29.6123 33.7017 29.7623 33.6464 29.9202C33.0622 29.7465 32.5649 29.3596 32.2412 28.8149C31.9965 28.4044 31.4755 28.2702 31.0649 28.5149C30.6544 28.7597 30.5202 29.2807 30.765 29.6912C31.5228 30.9622 32.857 31.7359 34.3333 31.7438H34.3727C36.6621 31.7438 38.541 29.8886 38.5568 27.5913C38.5647 26.4703 38.1384 25.4203 37.3568 24.623C36.5753 23.8256 35.5253 23.3835 34.4122 23.3756C33.9543 23.3914 33.5517 23.7546 33.5438 24.2282C33.5438 24.7019 33.9227 25.0887 34.3964 25.0966C35.7543 25.1045 36.8516 26.2255 36.8437 27.5834C36.8358 28.5544 36.2595 29.3991 35.4306 29.7938C35.4385 29.6912 35.4543 29.5807 35.4543 29.4702C35.4701 27.4334 33.5359 25.5782 29.9913 24.2519C28.9334 23.8572 27.765 23.5177 26.5098 23.2414C23.8889 22.6493 20.9047 22.3178 17.7864 22.2862C13.1839 22.2467 8.83409 22.8704 5.54998 24.0467C1.98957 25.3177 0.0238472 27.1334 0.000163779 29.1702C-0.0235197 31.7911 3.11059 34.0332 8.60515 35.3358C8.6683 35.3516 8.73935 35.3594 8.80251 35.3594C9.18934 35.3594 9.54459 35.091 9.63932 34.6963C9.74985 34.2384 9.46564 33.7727 8.99987 33.6621C4.56317 32.6122 1.70537 30.8596 1.72116 29.186C1.72906 27.9623 3.379 26.6439 6.12628 25.665C9.22881 24.5598 13.3655 23.9677 17.7706 24.0072C20.5258 24.0309 23.1705 24.2993 25.523 24.7729C26.9282 25.0572 28.2308 25.4203 29.3834 25.8545C32.1149 26.8808 33.7412 28.2228 33.7333 29.4544Z" fill="#4A4A4A"/>
<path d="M52.2853 76.5526C53.5168 76.5526 54.6694 76.079 55.5536 75.2185C56.4378 74.3422 56.9352 73.1817 56.9431 71.9344L57.243 36.425C57.2509 35.2487 56.9273 34.104 56.3115 33.1014L48.1644 19.965L45.875 16.2704C45.7171 16.0178 45.4487 15.8678 45.1487 15.8678L24.2441 15.6941C24.2441 15.6941 24.2441 15.6941 24.2362 15.6941C24.2046 15.6941 24.1731 15.6941 24.1415 15.702C24.1178 15.702 24.0862 15.702 24.0625 15.7099C24.0468 15.7099 24.031 15.7178 24.0152 15.7257C23.9757 15.7336 23.9441 15.7494 23.9047 15.7572C23.8968 15.7572 23.8889 15.7651 23.8731 15.773C23.8336 15.7888 23.7941 15.8125 23.7547 15.8362C23.7389 15.8441 23.7231 15.8599 23.7073 15.8757C23.6757 15.8993 23.652 15.923 23.6205 15.9467C23.6047 15.9625 23.5968 15.9783 23.581 15.9941C23.5573 16.0257 23.5336 16.0493 23.5099 16.0809C23.5099 16.0809 23.5099 16.0809 23.5099 16.0888L22.2942 17.9756C22.0416 18.3782 22.1521 18.9071 22.5547 19.1598C22.6968 19.2545 22.8626 19.294 23.0205 19.294C23.3047 19.294 23.581 19.1519 23.7468 18.8993L24.7099 17.4072L44.6671 17.573L46.1355 19.9413L54.851 34.0014C55.301 34.7198 55.5299 35.5566 55.522 36.4013L55.2221 71.9107C55.2221 72.7001 54.9063 73.4343 54.3458 73.9869C53.7853 74.5396 53.0511 74.8474 52.2616 74.8316L16.8628 74.5317H16.1523C15.3628 74.5159 14.6286 74.208 14.076 73.6475C13.5234 73.087 13.2234 72.3449 13.2313 71.5633L13.5313 36.054C13.5313 35.2014 13.7839 34.3803 14.2418 33.6619L17.0522 29.2884C17.3049 28.8858 17.1943 28.3568 16.7917 28.1042C16.3891 27.8516 15.8602 27.9621 15.6076 28.3647L12.7971 32.7383C12.1577 33.7251 11.8182 34.8698 11.8103 36.0461L11.5103 71.5554C11.5024 72.8028 11.9761 73.9711 12.8445 74.8632C13.7208 75.7474 14.8813 76.2448 16.1286 76.2526H17.1233L52.23 76.5526H52.2695H52.2853Z" fill="#4A4A4A"/>
</svg>
