<svg width="15" height="15" viewBox="0 0 15 15" fill="none" xmlns="http://www.w3.org/2000/svg">
<path d="M8.27641 0.0387977C8.0186 0.0128186 7.75964 -0.000113691 7.50056 7.52911e-07H7.49278C7.064 0.00709637 6.72116 0.358672 6.72482 0.787614V3.87947C6.72379 3.98361 6.74496 4.08673 6.78684 4.18206C6.92107 4.50159 7.25155 4.69272 7.59531 4.6498C7.99239 4.59029 8.28374 4.24569 8.27641 3.84433V1.60349C11.1734 1.9838 13.3657 4.41141 13.4497 7.3324C13.5337 10.2534 11.4846 12.8031 8.61433 13.3492C5.74402 13.8955 2.90185 12.2766 1.90744 9.52883C0.913015 6.78112 2.06055 3.71787 4.61548 2.30012C4.95512 2.10774 5.09725 1.69162 4.94619 1.33169L4.94528 1.32951C4.8606 1.12477 4.69261 0.966034 4.48343 0.892903C4.27436 0.819887 4.04401 0.839572 3.85027 0.946922C0.617665 2.74829 -0.817893 6.63863 0.469589 10.1083C1.75696 13.578 5.38264 15.5899 9.00764 14.8461C12.6326 14.1023 15.1734 10.8253 14.9908 7.1288C14.8082 3.43245 11.957 0.421732 8.27641 0.0387977Z" fill="black"/>
<path d="M4.66662 5.00785C4.97868 5.82969 5.99965 7.77011 6.76337 8.59629C7.23289 9.1264 8.0346 9.19735 8.58995 8.75811C8.86779 8.52499 9.03497 8.186 9.05099 7.82367C9.0669 7.46145 8.92992 7.10907 8.67371 6.85248C7.87497 6.05377 5.8478 4.99549 4.99779 4.67276C4.90258 4.63694 4.79513 4.66051 4.72349 4.73284C4.65197 4.80528 4.62966 4.91298 4.66662 5.00785Z" fill="black"/>
</svg>
