<svg width="71" height="25" viewBox="0 0 71 25" fill="none" xmlns="http://www.w3.org/2000/svg">
    <title>Nouveau</title>
    <path d="M0 0H71V3H0V0Z" fill="#303030"/>
    <path d="M7.408 7.992C7.408 7.93867 7.424 7.896 7.456 7.864C7.49867 7.82133 7.54667 7.8 7.6 7.8H9.472C9.52533 7.8 9.568 7.82133 9.6 7.864C9.64267 7.896 9.664 7.93867 9.664 7.992V18.808C9.664 18.8613 9.64267 18.9093 9.6 18.952C9.568 18.984 9.52533 19 9.472 19H7.664C7.55733 19 7.48267 18.9573 7.44 18.872L3.296 12.024C3.27467 11.992 3.25333 11.9813 3.232 11.992C3.21067 11.992 3.2 12.0133 3.2 12.056L3.232 18.808C3.232 18.8613 3.21067 18.9093 3.168 18.952C3.136 18.984 3.09333 19 3.04 19H1.168C1.11467 19 1.06667 18.984 1.024 18.952C0.992 18.9093 0.976 18.8613 0.976 18.808V7.992C0.976 7.93867 0.992 7.896 1.024 7.864C1.06667 7.82133 1.11467 7.8 1.168 7.8H2.976C3.08267 7.8 3.15733 7.84267 3.2 7.928L7.328 14.744C7.34933 14.776 7.37067 14.792 7.392 14.792C7.41333 14.7813 7.424 14.7547 7.424 14.712L7.408 7.992Z" fill="#303030"/>
    <path d="M15.6006 19.176C14.7686 19.176 14.0326 19.0053 13.3926 18.664C12.7633 18.3227 12.2726 17.848 11.9206 17.24C11.5686 16.6213 11.3926 15.912 11.3926 15.112V11.688C11.3926 10.8987 11.5686 10.2 11.9206 9.592C12.2726 8.984 12.7633 8.51467 13.3926 8.184C14.0326 7.84267 14.7686 7.672 15.6006 7.672C16.4433 7.672 17.1793 7.84267 17.8086 8.184C18.4486 8.51467 18.9446 8.984 19.2966 9.592C19.6486 10.2 19.8246 10.8987 19.8246 11.688V15.112C19.8246 15.912 19.6486 16.6213 19.2966 17.24C18.9446 17.8587 18.4486 18.3387 17.8086 18.68C17.1793 19.0107 16.4433 19.176 15.6006 19.176ZM15.6006 17.24C16.1873 17.24 16.662 17.0533 17.0246 16.68C17.3873 16.3067 17.5686 15.8107 17.5686 15.192V11.672C17.5686 11.0533 17.3873 10.5573 17.0246 10.184C16.6726 9.8 16.198 9.608 15.6006 9.608C15.014 9.608 14.5393 9.8 14.1766 10.184C13.8246 10.5573 13.6486 11.0533 13.6486 11.672V15.192C13.6486 15.8107 13.8246 16.3067 14.1766 16.68C14.5393 17.0533 15.014 17.24 15.6006 17.24Z" fill="#303030"/>
    <path d="M25.6181 19.128C24.7968 19.128 24.0715 18.968 23.4421 18.648C22.8235 18.328 22.3381 17.88 21.9861 17.304C21.6448 16.7173 21.4741 16.0453 21.4741 15.288V7.992C21.4741 7.93867 21.4901 7.896 21.5221 7.864C21.5648 7.82133 21.6128 7.8 21.6661 7.8H23.5381C23.5915 7.8 23.6341 7.82133 23.6661 7.864C23.7088 7.896 23.7301 7.93867 23.7301 7.992V15.304C23.7301 15.8693 23.9008 16.328 24.2421 16.68C24.5941 17.0213 25.0528 17.192 25.6181 17.192C26.1835 17.192 26.6368 17.0213 26.9781 16.68C27.3301 16.328 27.5061 15.8693 27.5061 15.304V7.992C27.5061 7.93867 27.5221 7.896 27.5541 7.864C27.5968 7.82133 27.6448 7.8 27.6981 7.8H29.5701C29.6235 7.8 29.6661 7.82133 29.6981 7.864C29.7408 7.896 29.7621 7.93867 29.7621 7.992V15.288C29.7621 16.0453 29.5861 16.7173 29.2341 17.304C28.8928 17.88 28.4075 18.328 27.7781 18.648C27.1595 18.968 26.4395 19.128 25.6181 19.128Z" fill="#303030"/>
    <path d="M34.5926 19C34.486 19 34.4166 18.9467 34.3846 18.84L31.0886 8.024L31.0726 7.96C31.0726 7.85333 31.1313 7.8 31.2486 7.8H33.2646C33.382 7.8 33.4566 7.85333 33.4886 7.96L35.6166 15.768C35.6273 15.8 35.6433 15.816 35.6646 15.816C35.686 15.816 35.702 15.8 35.7126 15.768L37.8086 7.96C37.8406 7.85333 37.9153 7.8 38.0326 7.8H40.0006C40.0646 7.8 40.1126 7.82133 40.1446 7.864C40.1766 7.90667 40.182 7.96 40.1606 8.024L36.8166 18.84C36.7846 18.9467 36.7153 19 36.6086 19H34.5926Z" fill="#303030"/>
    <path d="M49.252 9.544C49.252 9.59733 49.2307 9.64533 49.188 9.688C49.156 9.72 49.1133 9.736 49.06 9.736H43.812C43.7587 9.736 43.732 9.76267 43.732 9.816V12.296C43.732 12.3493 43.7587 12.376 43.812 12.376H47.252C47.3053 12.376 47.348 12.3973 47.38 12.44C47.4227 12.472 47.444 12.5147 47.444 12.568V14.12C47.444 14.1733 47.4227 14.2213 47.38 14.264C47.348 14.296 47.3053 14.312 47.252 14.312H43.812C43.7587 14.312 43.732 14.3387 43.732 14.392V16.984C43.732 17.0373 43.7587 17.064 43.812 17.064H49.06C49.1133 17.064 49.156 17.0853 49.188 17.128C49.2307 17.16 49.252 17.2027 49.252 17.256V18.808C49.252 18.8613 49.2307 18.9093 49.188 18.952C49.156 18.984 49.1133 19 49.06 19H41.668C41.6147 19 41.5667 18.984 41.524 18.952C41.492 18.9093 41.476 18.8613 41.476 18.808V7.992C41.476 7.93867 41.492 7.896 41.524 7.864C41.5667 7.82133 41.6147 7.8 41.668 7.8H49.06C49.1133 7.8 49.156 7.82133 49.188 7.864C49.2307 7.896 49.252 7.93867 49.252 7.992V9.544Z" fill="#303030"/>
    <path d="M57.9398 19C57.8331 19 57.7638 18.9467 57.7318 18.84L57.2518 17.272C57.2304 17.2293 57.2038 17.208 57.1717 17.208H53.2357C53.2037 17.208 53.1771 17.2293 53.1558 17.272L52.6917 18.84C52.6597 18.9467 52.5904 19 52.4837 19H50.4518C50.3878 19 50.3398 18.984 50.3078 18.952C50.2757 18.9093 50.2704 18.8507 50.2918 18.776L53.7477 7.96C53.7798 7.85333 53.8491 7.8 53.9557 7.8H56.4678C56.5744 7.8 56.6437 7.85333 56.6758 7.96L60.1318 18.776C60.1424 18.7973 60.1478 18.824 60.1478 18.856C60.1478 18.952 60.0891 19 59.9717 19H57.9398ZM53.7318 15.368C53.7211 15.432 53.7424 15.464 53.7957 15.464H56.6118C56.6758 15.464 56.6971 15.432 56.6758 15.368L55.2357 10.616C55.2251 10.5733 55.2091 10.5573 55.1878 10.568C55.1664 10.568 55.1504 10.584 55.1398 10.616L53.7318 15.368Z" fill="#303030"/>
    <path d="M65.3994 19.128C64.578 19.128 63.8527 18.968 63.2234 18.648C62.6047 18.328 62.1194 17.88 61.7674 17.304C61.426 16.7173 61.2554 16.0453 61.2554 15.288V7.992C61.2554 7.93867 61.2714 7.896 61.3034 7.864C61.346 7.82133 61.394 7.8 61.4474 7.8H63.3194C63.3727 7.8 63.4154 7.82133 63.4474 7.864C63.49 7.896 63.5114 7.93867 63.5114 7.992V15.304C63.5114 15.8693 63.682 16.328 64.0234 16.68C64.3754 17.0213 64.834 17.192 65.3994 17.192C65.9647 17.192 66.418 17.0213 66.7594 16.68C67.1114 16.328 67.2874 15.8693 67.2874 15.304V7.992C67.2874 7.93867 67.3034 7.896 67.3354 7.864C67.378 7.82133 67.426 7.8 67.4794 7.8H69.3514C69.4047 7.8 69.4474 7.82133 69.4794 7.864C69.522 7.896 69.5434 7.93867 69.5434 7.992V15.288C69.5434 16.0453 69.3674 16.7173 69.0154 17.304C68.674 17.88 68.1887 18.328 67.5594 18.648C66.9407 18.968 66.2207 19.128 65.3994 19.128Z" fill="#303030"/>
    <path d="M0 22H71V25H0V22Z" fill="#303030"/>
</svg>
